<?xml version="1.0" encoding="UTF-8" standalone="no"?>
<!-- Generator: Adobe Illustrator 19.0.0, SVG Export Plug-In . SVG Version: 6.00 Build 0)  -->

<svg
   version="1.1"
   id="Calque_1"
   x="0px"
   y="0px"
   viewBox="-50 55 798 454"
   style="enable-background:new -50 55 798 454;"
   xml:space="preserve"
   sodipodi:docname="alsea.svg"
   inkscape:version="1.1 (c68e22c387, 2021-05-23)"
   xmlns:inkscape="http://www.inkscape.org/namespaces/inkscape"
   xmlns:sodipodi="http://sodipodi.sourceforge.net/DTD/sodipodi-0.dtd"
   xmlns="http://www.w3.org/2000/svg"
   xmlns:svg="http://www.w3.org/2000/svg"><defs
   id="defs29" /><sodipodi:namedview
   id="namedview27"
   pagecolor="#ffffff"
   bordercolor="#666666"
   borderopacity="1.0"
   inkscape:pageshadow="2"
   inkscape:pageopacity="0.0"
   inkscape:pagecheckerboard="0"
   showgrid="false"
   inkscape:zoom="0.42449875"
   inkscape:cx="-45.936531"
   inkscape:cy="93.050922"
   inkscape:window-width="1920"
   inkscape:window-height="991"
   inkscape:window-x="-9"
   inkscape:window-y="-9"
   inkscape:window-maximized="1"
   inkscape:current-layer="g24" />
<style
   type="text/css"
   id="style2">
	.st0{opacity:0.3;}
	.st1{fill:#FFFFFF;}
</style>
<g
   class="st0"
   id="g24">
	
	
	
	
	
	
<g
   id="g34"
   transform="matrix(0.5151463,0,0,0.5151463,198.20536,19.710632)"
   style="opacity:1;fill:#ffffff"><g
     id="g32"
     style="fill:#ffffff"><path
       id="path4"
       style="fill:#ffffff;fill-opacity:1;stroke-width:2.16419"
       d="m 331.86523,530.68164 c -37.85823,0.63627 -75.73921,0.58871 -113.59961,0.0195 -8.76931,-0.13201 -12.08018,2.52512 -14.88281,10.79883 -50.78063,149.773 -102.01762,299.39075 -152.904294,449.12695 -2.220463,6.5337 -4.91876,9.41668 -12,9.00977 -9.704243,-0.55836 -19.477452,0.14679 -29.2011722,-0.2168 -6.5769835,-0.24455 -9.52358619,1.22521 -9.2617188,8.84961 0.62978025,18.3719 0.48124465,36.7873 0.05273437,55.17 -0.15365772,6.5531 1.52569683,8.6206 8.35156253,8.5253 28.4872761,-0.3938 56.9810511,-0.1664 85.4726561,-0.1621 28.853022,0 57.705572,-0.12 86.558592,0.1094 5.65071,0.043 8.40757,-0.7966 8.25391,-7.4883 -0.44366,-19.1033 -0.42503,-38.2306 0.008,-57.334 0.14933,-6.5661 -2.4773,-7.91209 -8.19727,-7.67186 -7.92094,0.33328 -15.86489,-0.005 -23.79882,0.10547 -5.12265,0.0692 -8.26828,-0.18021 -5.83789,-7.16406 9.91417,-28.50676 19.34563,-57.18213 28.71875,-85.875 1.3418,-4.11414 3.22598,-5.71374 7.59765,-5.70508 58.42456,0.1147 116.84867,0.11143 175.27539,-0.01 4.24399,-0.009 6.45946,1.26135 7.89649,5.39063 10.01372,28.80541 20.05381,57.59861 30.55664,86.22656 2.37628,6.47743 0.39611,7.40571 -5.34766,7.21094 -8.28669,-0.28351 -16.59437,0.15217 -24.8789,-0.14649 -5.6334,-0.2056 -7.37907,1.84849 -7.27735,7.54679 0.34411,19.1055 0.39684,38.2305 -0.0273,57.336 -0.145,6.5294 2.36418,7.5976 8.14258,7.5781 57.70388,-0.1818 115.40744,-0.1656 173.11132,-0.01 5.34556,0.013 7.68264,-1.0248 7.57227,-7.0585 -0.35926,-19.467 -0.3629,-38.9533 0.0137,-58.418 0.1212,-6.2156 -2.6633,-7.11378 -7.75781,-6.98826 -9.37096,0.22724 -18.82541,-0.6901 -28.10547,0.25781 -9.73887,0.99765 -13.51959,-2.9629 -16.54297,-11.89453 C 449.5498,839.30033 398.81438,690.95965 348.54883,542.45703 c -3.07099,-9.07013 -7.10704,-11.9377 -16.6836,-11.77539 z m -54.7207,93.6582 c 7.01199,21.75231 14.06514,43.48883 21.02735,65.25196 6.49582,20.3142 12.90508,40.65875 19.37304,60.98242 3.23398,10.16183 6.48413,20.319 9.76563,30.46484 3.28149,10.14567 6.59561,20.28084 9.96093,30.39844 0.41905,1.25929 0.74751,2.38655 0.98438,3.39648 0.23686,1.00994 0.38199,1.90123 0.42969,2.6875 0.0477,0.78628 -0.002,1.46832 -0.15039,2.05664 -0.29693,1.17665 -0.99173,1.98247 -2.11524,2.52149 -0.56175,0.26951 -1.23087,0.47244 -2.00976,0.62109 -0.77889,0.14866 -1.66886,0.24338 -2.67188,0.29688 -1.00301,0.0535 -2.11938,0.0648 -3.35351,0.0488 -9.90065,-0.12823 -19.80169,-0.20412 -29.73243,-0.24805 -29.79221,-0.13148 -59.8494,0.0371 -90.9375,0.0371 22.27388,-66.60089 44.28856,-132.42934 66.30274,-198.25977 1.04314,-0.0844 2.08381,-0.17145 3.12695,-0.25586 z"
       transform="matrix(0.46206593,0,0,0.46206593,-290.1184,172.51267)" /><path
       id="path6"
       style="fill:#ffffff;fill-opacity:1;stroke-width:2.16419"
       d="m 2286.7246,0.00195313 c -3.9782,0.06176827 -8.5792,1.80889697 -14.0703,5.17773437 -35.8953,22.0228315 -71.9095,43.8636435 -107.4629,66.4296875 -8.3018,5.269811 -15.242,5.318984 -24.1152,2.228516 C 2085.1101,54.321195 2028.9966,35.23145 1972.877,16.15625 c -19.2224,-6.5336996 -29.199,2.50786 -26.1973,22.273438 5.1811,34.118507 9.4053,68.384132 14.5215,102.515622 1.1427,7.60931 -1.4536,10.58725 -8.2578,13.19727 -52.3346,20.06207 -104.5006,40.56494 -156.7637,60.80664 -7.9339,3.07315 -15.7304,6.06508 -16.9727,15.93164 -1.253,9.9423 5.5681,14.63584 12.7207,19.37109 37.2328,24.63502 74.2209,49.64333 111.6289,74.00782 7.038,4.58592 7.8907,7.72952 3.4649,14.96875 -28.1475,46.06269 -55.7603,92.44692 -83.6113,138.6914 -3.9735,6.59863 -7.959,12.93532 -3.4336,20.98828 4.7092,8.37327 12.4228,8.58156 20.6035,8.56641 48.6813,-0.0887 97.3637,0.17381 146.0429,-0.22656 8.0032,-0.0649 11.3809,2.34066 13.1231,10.0625 21.5056,95.34353 43.3161,190.61064 64.8672,285.94336 1.9045,8.41654 5.3696,15.14893 14.1562,17.14648 8.1764,1.85688 13.5364,-3.29334 18.2305,-9.11719 53.5703,-66.44506 107.2283,-132.81787 160.6406,-199.39062 13.6063,-16.96295 13.2379,-17.24372 33.4688,-8.63672 43.9894,18.72244 88.1253,37.11647 131.9199,56.28906 18.0667,7.91013 29.3336,-5.416 26.2734,-20.57617 -1.6296,-8.07244 -1.7308,-16.45776 -2.5078,-24.70117 -4.0254,-42.63245 -7.9622,-85.27138 -12.1543,-127.88867 -0.6968,-7.11587 1.2281,-11.72325 7.3203,-16.20313 31.3332,-23.03784 62.2321,-46.66651 93.2969,-70.07226 5.3066,-3.99943 10.1049,-8.27536 9.75,-15.76563 0.2749,-7.33661 -4.6769,-11.73803 -9.1914,-16.38672 -23.8386,-24.57658 -47.37,-49.45977 -71.7129,-73.52344 -6.4298,-6.3584 -6.9651,-12.20299 -5.2402,-20.05468 7.395,-33.65321 14.5182,-67.36432 21.6211,-101.07813 3.5925,-17.03653 -0.045,-22.70371 -16.8692,-27.18359 -35.0512,-9.332 -70.0211,-18.9894 -105.2109,-27.76953 -6.5878,-1.64263 -9.6811,-4.79392 -12.2305,-10.35157 -14.3897,-31.369978 -28.986,-62.641361 -43.4883,-93.955074 -4.4271,-9.5576184 -9.3306,-14.13615 -15.9609,-14.03320287 z M 2276.3457,42.304688 c 0.5985,-0.02133 1.1525,0.05765 1.6719,0.236328 2.0794,0.7133 3.6188,3.025879 5.3652,6.945312 0.1622,0.363742 0.3317,0.724298 0.4942,1.087891 5.7858,12.945698 11.7733,25.800627 17.7695,38.652343 6.4511,13.826158 12.9034,27.652188 19.0996,41.591798 4.192,9.42723 10.3484,14.5533 20.334,17.05078 31.7141,7.93177 63.169,16.90158 94.9199,24.67969 8.726,2.13822 10.6779,5.21469 8.6934,13.92773 -7.4946,32.92171 -13.8864,66.09651 -21.4004,99.01172 -1.963,8.60267 0.4725,14.46617 6.1015,20.24024 22.8972,23.48799 45.5454,47.22024 68.6309,70.51562 4.3439,4.38175 5.2514,6.55141 1.2226,10.08594 -0.2716,0.23847 -0.6419,0.50779 -0.9589,0.75976 -0.3525,0.27998 -0.6567,0.54424 -1.0664,0.84375 0,0.001 0,0.003 0,0.004 -7.1215,5.20816 -14.2072,10.46754 -21.2715,15.75391 -4.7467,3.55209 -9.476,7.12654 -14.209,10.69726 -2.3127,1.74468 -4.6322,3.47982 -6.9434,5.22656 -7e-4,5.5e-4 0,10e-4 0,0.002 -14.0812,10.64241 -28.1445,21.3072 -42.3203,31.82031 0,10e-4 0,0.003 0,0.004 -1.154,0.85617 -2.2196,1.72281 -3.1973,2.60547 -0.9791,0.88383 -1.8703,1.78386 -2.6758,2.71093 0,10e-4 0,0.003 0,0.004 -4.8304,5.56147 -6.5682,12.05307 -5.5508,21.27344 4.9387,44.70574 8.3042,89.58818 12.2344,134.40429 0.1515,1.72703 0.019,3.47974 0.019,5.0293 0,4.3e-4 0,-4.3e-4 0,0 0,6e-4 0,10e-4 0,0.002 -0.563,0.18749 -1.1049,0.31338 -1.6269,0.38672 -1.6299,0.22981 -3.0643,-0.0592 -4.4102,-0.54297 -1.6057,-0.57689 -3.0748,-1.42623 -4.5508,-2.07422 -0.07,-0.0306 -0.1451,-0.0681 -0.2148,-0.0977 -41.3599,-17.53646 -82.6608,-35.21323 -123.9688,-52.87305 -6.7988,-2.90867 -11.4987,-4.07981 -15.6523,-3.09375 -1.0383,0.24684 -2.0429,0.62761 -3.0371,1.15039 -0.5064,0.26607 -1.0112,0.6774 -1.5156,1.01758 -0.4852,0.32735 -0.9698,0.58103 -1.459,0.97852 -8e-4,6.1e-4 0,10e-4 0,0.002 -0.9981,0.81118 -2.0096,1.76998 -3.0605,2.88281 -1.0517,1.11357 -2.142,2.38191 -3.295,3.81055 -50.668,62.77675 -101.2829,125.59624 -151.9726,188.35351 -1.628,2.01433 -2.989,4.43631 -5.7363,6.05469 0,7.8e-4 0,10e-4 0,0.002 -0.4569,0.26891 -0.9511,0.51549 -1.4922,0.73438 0,8e-4 0,10e-4 -0.01,0.002 -0.5425,0.21947 -1.1309,0.41233 -1.7734,0.57032 -4.718,-20.60745 -9.4304,-41.09299 -14.0899,-61.5879 -15.9284,-70.07657 -31.8289,-140.15996 -47.7617,-210.23437 -3.1662,-13.92009 -8.1186,-17.97878 -22.3828,-17.99609 -46.5085,-0.0584 -93.0171,-0.0215 -140.2246,-0.0215 0.2662,-5.81302 4.0053,-9.42646 6.4141,-13.46484 24.728,-41.42915 49.6431,-82.74679 74.4101,-124.1543 7.605,-12.71247 5.9178,-19.77432 -6.3965,-27.99609 -32.636,-21.79127 -65.3252,-43.50831 -97.9375,-65.33203 -0.09,-0.0604 -0.1955,-0.12248 -0.2871,-0.18165 -1.3094,-0.84489 -2.7304,-1.59966 -4.1016,-2.59765 -0.8646,-0.62855 -1.6991,-1.35231 -2.4667,-2.28516 -0.6517,-0.79241 -1.2528,-1.72591 -1.7715,-2.86328 -0.011,-0.0231 -0.025,-0.0353 -0.035,-0.0586 0,-5.4e-4 0,-0.001 0,-0.002 15.635,-6.21069 31.1307,-12.44604 46.6856,-18.53125 0,-5.2e-4 0,-0.001 0,-0.002 34.1344,-13.35038 68.3264,-26.55884 102.4414,-39.95898 0,-5.9e-4 0,-0.001 0,-0.002 1.6411,-0.64488 3.115,-1.27175 4.4355,-1.90039 0,-6.8e-4 0,-0.001 0,-0.002 1.32,-0.62853 2.4855,-1.25864 3.5098,-1.91406 0,-8.4e-4 0,-0.001 0,-0.002 6.1464,-3.93718 7.1828,-8.75166 5.7969,-19.10351 -4.1012,-30.65364 -8.5132,-61.260376 -12.7637,-91.894532 -0.1623,-1.168421 -0.4486,-2.365815 -0.4492,-3.628907 -10e-5,-0.04994 -0.013,-0.09632 -0.012,-0.146484 0,-0.114672 0.053,-0.239578 0.061,-0.355469 0.036,-0.551606 0.093,-1.107428 0.2949,-1.691406 0.2443,-0.705595 0.6341,-1.436671 1.2325,-2.201172 28.5543,9.702079 57.4138,19.47603 86.2539,29.314453 25.5093,8.70655 50.9934,17.495787 76.4941,26.230467 0.9429,0.32286 1.8759,0.59787 2.8008,0.82227 0,2.9e-4 0,-2.9e-4 0,0 0.925,0.22391 1.8419,0.39914 2.752,0.52148 0.9118,0.12281 1.8186,0.19339 2.7187,0.21094 1.0756,0.0207 2.1431,-0.0608 3.207,-0.19531 0.7151,-0.0903 1.4307,-0.19097 2.1426,-0.35352 0.518,-0.11827 1.0338,-0.29782 1.5508,-0.45508 1.0197,-0.31021 2.0389,-0.68877 3.0586,-1.15429 0.2304,-0.10518 0.4608,-0.17971 0.6914,-0.29297 0,-6.2e-4 0,-0.001 0,-0.002 0.8836,-0.43422 1.7683,-0.92746 2.6563,-1.48242 0,-7.7e-4 0,-0.001 0,-0.002 16.7864,-10.493405 33.6713,-20.82938 50.5351,-31.197266 0,-7.6e-4 0,-0.0012 0,-0.002 8.4313,-5.183566 16.856,-10.376022 25.2617,-15.59961 0,-7.65e-4 0,-0.0012 0,-0.002 8.4058,-5.223598 16.7922,-10.479797 25.1426,-15.791016 0,-8.68e-4 0,-0.0011 0,-0.002 1.9499,-1.240074 3.5775,-2.080885 4.9785,-2.523437 0.4389,-0.13861 0.8199,-0.168184 1.2168,-0.228516 0.2371,-0.03593 0.5028,-0.128744 0.7266,-0.136718 z"
       transform="matrix(0.46206593,0,0,0.46206593,-290.1184,172.51267)" /><path
       id="path8"
       style="fill:#ffffff;fill-opacity:1;stroke-width:2.16419"
       d="m 1680.9453,669.35156 c -48.2147,0.1204 -95.8859,6.5024 -143.3867,14.97656 -6.0165,1.07344 -7.6986,3.1571 -7.5645,8.91602 0.3377,14.41353 0.6586,28.86851 -0.086,43.25391 -0.4523,8.70871 1.5672,11.50358 10.9316,11.38672 44.6993,-0.56053 89.4115,-0.21564 134.1172,-0.26758 10.5029,-0.013 20.8645,1.19389 30.8653,4.23242 17.4866,5.31309 27.4104,16.9725 30.291,35.39844 2.3676,15.12987 0.6735,30.22348 1.5781,45.29492 0.448,7.47079 -4.3168,6.85003 -9.1191,6.8457 -30.6428,-0.0281 -61.2884,0.0198 -91.9356,-0.043 -13.3466,-0.026 -26.6169,0.72191 -39.7168,3.37305 -39.4164,7.97722 -70.2086,27.16204 -85.0117,66.47461 -7.7521,20.58581 -9.5348,42.20762 -7.416,63.83008 4.5275,46.17959 25.6368,81.73709 70.6953,98.19139 34.4778,12.5913 69.9752,11.0392 104.6953,-0.7773 23.2629,-7.9188 40.492,-24.1609 57.0156,-45.6816 2.8243,15.435 5.4819,27.967 7.25,40.6211 0.7164,5.1053 2.5322,6.5212 7.4297,6.5039 40.3795,-0.1494 80.7613,-0.145 121.1387,0 4.9084,0.017 7.0647,-1.1023 6.9824,-6.5625 -0.2878,-19.4648 -0.2636,-38.9376 -0.023,-58.4024 0.069,-5.5057 -1.5186,-7.74156 -7.336,-7.50783 -10.0764,0.40687 -20.2239,-0.44259 -30.2636,0.31055 -7.9729,0.60168 -10.3862,-1.47492 -10.3321,-9.88281 0.3939,-61.28996 0.2175,-122.58288 0.211,-183.875 0,-15.48913 -0.648,-30.93612 -3.336,-46.23047 -7.0899,-40.32542 -29.1336,-68.12991 -68.5976,-80.81641 -18.9151,-6.08138 -38.5982,-8.50456 -58.3789,-9.21875 -6.9111,-0.2505 -13.8095,-0.36095 -20.6973,-0.34375 z m 49.9629,229.31055 c 0.9901,-0.007 1.927,-10e-4 2.7715,0.0957 0.4222,0.0486 0.8208,0.1206 1.1914,0.22461 0.3706,0.10402 0.7125,0.24084 1.0215,0.41992 0.3089,0.17909 0.5851,0.40006 0.8222,0.67383 0.2372,0.27377 0.4366,0.60022 0.5918,0.98828 0.1553,0.38807 0.2669,0.8374 0.3301,1.35938 0.063,0.52197 0.078,1.11551 0.039,1.79101 -0.1007,1.74678 -0.1649,3.49475 -0.2012,5.24219 -0.1089,5.24249 0.018,10.48809 0.055,15.73633 0.012,1.74934 0.014,3.4981 -0.01,5.24805 0,6.5e-4 0,10e-4 0,0.002 -0.02,1.74997 -0.061,3.49952 -0.1367,5.25 -0.076,1.75048 -0.1858,3.50101 -0.3418,5.25195 -0.156,1.75095 -0.3589,3.50254 -0.6191,5.25391 -0.1896,1.27768 -0.4116,2.53565 -0.6641,3.77539 -0.2525,1.23974 -0.5344,2.46058 -0.8476,3.66211 -0.3132,1.20153 -0.6576,2.38382 -1.0293,3.54687 -0.3718,1.16306 -0.7711,2.30734 -1.1993,3.43164 -0.4281,1.12431 -0.8848,2.22916 -1.3671,3.31446 -0.4821,1.08476 -0.9914,2.14979 -1.5254,3.19531 -3e-4,5.2e-4 2e-4,10e-4 0,0.002 -0.5344,1.04602 -1.0936,2.07166 -1.6778,3.07813 -1.1681,2.01248 -2.4346,3.94606 -3.789,5.79883 -3e-4,4.2e-4 3e-4,0.002 0,0.002 -0.6771,0.92616 -1.3773,1.83094 -2.0977,2.7168 -3e-4,3.9e-4 3e-4,0.002 0,0.002 -0.7207,0.88623 -1.4628,1.75204 -2.2246,2.59766 -0.7615,0.84526 -1.5452,1.67018 -2.3457,2.47461 -0.8011,0.80508 -1.6191,1.58961 -2.457,2.35351 -3.3505,3.05438 -6.9879,5.7787 -10.8399,8.16406 -1.9255,1.19231 -3.9049,2.30035 -5.9297,3.32227 -1.0126,0.51111 -2.0381,1.00066 -3.0722,1.46875 -2.0678,0.93583 -4.1775,1.78653 -6.3184,2.54883 -1.0707,0.3812 -2.1506,0.7407 -3.2363,1.0781 -2.171,0.6746 -4.37,1.262 -6.5879,1.7598 -1.1093,0.249 -2.2241,0.4753 -3.3418,0.6797 -2.2349,0.4085 -4.4864,0.7285 -6.7422,0.957 -2.2564,0.2286 -4.5174,0.3657 -6.7773,0.4121 -1.13,0.023 -2.2592,0.025 -3.3867,0 -1.1276,-0.023 -2.254,-0.07 -3.377,-0.1387 -2.5868,-0.1585 -5.171,-0.4004 -7.7383,-0.7481 -1.2836,-0.1738 -2.5616,-0.3738 -3.8359,-0.6035 -1.2744,-0.2296 -2.5446,-0.488 -3.8067,-0.7793 -1.262,-0.2912 -2.5168,-0.6142 -3.7636,-0.9726 -1.2469,-0.3585 -2.4863,-0.7522 -3.7149,-1.1836 -1.2286,-0.4314 -2.4469,-0.9021 -3.6543,-1.4121 -1.2074,-0.51 -2.4026,-1.05998 -3.5859,-1.65432 -1.3107,-0.65832 -2.5742,-1.3497 -3.7891,-2.07422 -1.2149,-0.72452 -2.3808,-1.4826 -3.5,-2.27344 -1.1191,-0.79083 -2.1913,-1.61538 -3.2148,-2.47265 -1.0235,-0.85727 -1.9999,-1.74611 -2.9278,-2.66992 -0.9278,-0.92382 -1.8063,-1.88257 -2.6386,-2.87305 -0.8323,-0.99048 -1.6167,-2.01306 -2.3535,-3.07031 -0.7368,-1.05726 -1.4271,-2.14734 -2.0684,-3.27149 -0.6413,-1.12414 -1.2353,-2.28345 -1.7812,-3.47461 -0.546,-1.19115 -1.0436,-2.41555 -1.4942,-3.67382 -0.4506,-1.25828 -0.8536,-2.54949 -1.209,-3.875 -0.3553,-1.32552 -0.6637,-2.68527 -0.9238,-4.07813 -0.2601,-1.39286 -0.4718,-2.81896 -0.6367,-4.2793 -0.1649,-1.46033 -0.2818,-2.9545 -0.3516,-4.48242 -0.07,-1.52791 -0.094,-3.08993 -0.068,-4.68554 0.025,-1.59562 0.099,-3.22525 0.2187,-4.88868 0.1203,-1.66342 0.2887,-3.36044 0.5039,-5.09179 0.1563,-1.25874 0.3614,-2.49895 0.6113,-3.71875 0.012,-0.0587 0.025,-0.11717 0.037,-0.17578 0.2546,-1.2187 0.553,-2.41683 0.8985,-3.59376 0.3536,-1.20482 0.7531,-2.38669 1.1992,-3.54492 0.436,-1.13199 0.9178,-2.24137 1.4395,-3.32617 0.024,-0.0501 0.048,-0.10035 0.072,-0.15039 0.5135,-1.05772 1.0676,-2.09153 1.6602,-3.10156 0.027,-0.0463 0.055,-0.0924 0.082,-0.13867 0.5974,-1.00993 1.2339,-1.99566 1.9082,-2.95508 0.03,-0.0424 0.06,-0.0846 0.09,-0.12695 0.6935,-0.97967 1.4239,-1.93343 2.1953,-2.85743 0.7875,-0.94333 1.6147,-1.85579 2.4804,-2.73828 0.8658,-0.88248 1.7699,-1.73395 2.711,-2.55273 0.9255,-0.80522 1.8891,-1.57749 2.8847,-2.31836 0.032,-0.0239 0.064,-0.0485 0.096,-0.0723 0.984,-0.72846 2.0013,-1.42665 3.0508,-2.08984 0.031,-0.0197 0.063,-0.039 0.094,-0.0586 1.0694,-0.67255 2.1702,-1.30989 3.3047,-1.91211 1.1369,-0.60356 2.3083,-1.17101 3.5078,-1.70118 0.027,-0.0118 0.053,-0.0234 0.08,-0.0351 1.1893,-0.52345 2.4082,-1.01028 3.6562,-1.45899 0.024,-0.009 0.048,-0.0186 0.072,-0.0273 1.2541,-0.44902 2.5372,-0.85954 3.8476,-1.23047 0.02,-0.006 0.04,-0.0119 0.061,-0.0176 1.3249,-0.37353 2.6771,-0.70511 4.0566,-0.99609 2.1215,-0.44745 4.2473,-0.8162 6.3789,-1.11719 2.1317,-0.30099 4.2684,-0.53463 6.4102,-0.70898 2.1417,-0.17436 4.2897,-0.2899 6.4414,-0.35742 2.1517,-0.0675 4.3072,-0.0878 6.4687,-0.0684 8.6373,0.0757 17.2751,0.0156 25.9102,0.0156 13.3141,0.0173 26.629,0.0735 39.9453,-0.0195 z"
       transform="matrix(0.46206593,0,0,0.46206593,-290.1184,172.51267)" /><path
       id="path10"
       style="fill:#ffffff;fill-opacity:1;stroke-width:2.16419"
       d="m 1321.5156,669.06641 c -12.7257,0.057 -25.5415,1.07107 -38.4043,2.82812 -64.3176,8.78663 -112.9756,39.76374 -136.0351,102.66602 -24.5268,66.90387 -23.2068,134.96385 -1.2403,202.0625 15.9458,48.70735 50.2592,80.40335 99.9707,94.43165 25.8622,7.2976 52.3358,8.2403 79.1133,7.8789 38.6698,-0.5216 76.6064,-5.8465 114.3867,-13.4688 7.7349,-1.5625 11.6668,-3.7846 11.0586,-12.8418 -0.9457,-13.9958 -0.8071,-28.1329 -0.041,-42.1503 0.461,-8.4404 -2.475,-10.02 -10.3008,-9.9551 -44.3356,0.3679 -88.6799,0.4298 -133.0156,0.068 -32.1859,-0.2618 -55.3007,-16.71349 -66.957,-46.72652 -5.3715,-13.83353 -7.8148,-28.24227 -9.0528,-43.04102 -0.541,-6.48609 0.8016,-8.0028 7.0215,-7.91406 21.2654,0.30298 42.5318,0.11523 68.0606,0.11523 23.8126,-0.74881 51.9448,1.53397 79.9668,-2.05859 39.0961,-5.01444 69.7867,-21.62629 84.2695,-60.64453 23.6936,-63.82206 -4.0557,-128.73896 -66.5273,-155.44727 -26.7105,-11.42099 -54.2769,-15.9282 -82.2735,-15.80273 z m -0.7597,78.4707 c 1.0703,0.0127 2.1407,0.044 3.207,0.0937 4.2653,0.19886 8.4893,0.6953 12.6074,1.49414 2.0591,0.39942 4.0906,0.87421 6.0879,1.42578 5.9918,1.65471 11.6691,3.99699 16.8047,7.04688 1.1933,0.70863 2.3456,1.45097 3.457,2.22265 1.1114,0.77169 2.1811,1.57322 3.209,2.4043 1.0279,0.83108 2.0143,1.6913 2.957,2.57812 0.9428,0.88683 1.8413,1.79937 2.6973,2.73829 0.856,0.93891 1.6699,1.90327 2.4375,2.89062 0.7676,0.98735 1.4904,1.99912 2.168,3.03125 0.6776,1.03213 1.3085,2.08494 1.8945,3.1582 0.586,1.07327 1.1264,2.16661 1.6191,3.27735 0.4928,1.11074 0.9381,2.23825 1.336,3.38281 0.3979,1.14456 0.7493,2.30574 1.0508,3.48047 0.3014,1.17473 0.5525,2.3632 0.7558,3.56445 0.2034,1.20125 0.3573,2.41651 0.461,3.64063 0.1036,1.22411 0.1578,2.45784 0.1601,3.70117 0,1.24332 -0.046,2.49502 -0.1465,3.75391 -0.1006,1.25888 -0.2538,2.52413 -0.459,3.79492 -0.2051,1.27078 -0.462,2.54713 -0.7734,3.82617 -0.3005,1.23481 -0.6468,2.44279 -1.0371,3.62109 -0.3903,1.1783 -0.8255,2.32764 -1.3027,3.44727 -0.4773,1.11962 -0.9972,2.2088 -1.5586,3.26758 -0.5614,1.05877 -1.164,2.08626 -1.8067,3.08203 -0.6427,0.99576 -1.3257,1.96004 -2.0468,2.89062 -0.7212,0.93059 -1.4805,1.82817 -2.2774,2.69141 -0.7968,0.86323 -1.6323,1.69261 -2.5019,2.48633 -0.8697,0.79371 -1.7752,1.55141 -2.7149,2.27343 -0.9397,0.72203 -1.913,1.40847 -2.9199,2.05665 -1.0069,0.64817 -2.0459,1.25792 -3.1172,1.83007 -1.0713,0.57215 -2.1738,1.10565 -3.3066,1.59961 -1.1328,0.49396 -2.2968,0.94773 -3.4883,1.36133 -1.1915,0.4136 -2.4108,0.78807 -3.6582,1.11914 -1.2475,0.33107 -2.5218,0.61886 -3.8223,0.86524 -1.3005,0.24637 -2.6277,0.44986 -3.9785,0.60937 -1.3508,0.15951 -2.7268,0.27523 -4.125,0.3457 -1.0799,0.0541 -2.1603,0.13672 -3.2402,0.13672 -15.5065,0.009 -31.0131,0.006 -46.5196,0.006 -7.5725,10e-4 -15.1519,-0.1175 -22.7265,-0.1543 -3.7874,-0.0184 -7.5728,-0.0164 -11.3575,0.0313 -3.7846,0.0476 -7.5678,0.1427 -11.3476,0.30664 -1.1265,0.049 -2.1638,0.0738 -3.1133,0.0605 -0.9495,-0.0133 -1.8103,-0.065 -2.584,-0.17187 -0.7736,-0.10691 -1.4598,-0.27 -2.0586,-0.50196 -0.2988,-0.11575 -0.5765,-0.24958 -0.832,-0.40234 -5e-4,-2.7e-4 0,2.8e-4 0,0 -0.2559,-0.15313 -0.4887,-0.32533 -0.7012,-0.51953 -0.425,-0.38841 -0.7634,-0.86319 -1.0156,-1.43945 -0.1262,-0.28814 -0.2314,-0.60043 -0.3145,-0.94141 -0.083,-0.34098 -0.1453,-0.70966 -0.1855,-1.10742 -0.081,-0.79553 -0.074,-1.70966 0.016,-2.75586 0.09,-1.0462 0.2637,-2.22446 0.5234,-3.55274 0.6082,-3.11184 1.2577,-6.19651 1.9668,-9.24609 0.7091,-3.04958 1.4784,-6.06389 2.3262,-9.03516 0.8478,-2.97126 1.7747,-5.90042 2.7988,-8.77734 0.5121,-1.43846 1.0481,-2.86353 1.6113,-4.27539 0.5633,-1.41186 1.1543,-2.8101 1.7735,-4.19336 0.6191,-1.38326 1.2675,-2.75282 1.9472,-4.10547 0.6798,-1.35265 1.3898,-2.68778 2.1348,-4.00781 0.745,-1.32004 1.5248,-2.62474 2.3399,-3.91016 0.815,-1.28541 1.6648,-2.55199 2.5546,-3.80078 0.8898,-1.24879 1.8199,-2.47929 2.7891,-3.68945 0.9693,-1.21016 1.9778,-2.40079 3.0313,-3.57031 1.0534,-1.16953 2.1506,-2.31844 3.2929,-3.44532 1.1423,-1.12688 2.3305,-2.23026 3.5664,-3.3125 1.5005,-1.31434 3.0742,-2.56276 4.7129,-3.74218 1.6387,-1.17943 3.3413,-2.29091 5.1016,-3.33399 1.7602,-1.04307 3.5782,-2.01658 5.4433,-2.92187 1.8652,-0.90529 3.7791,-1.74175 5.7325,-2.50782 1.9533,-0.76606 3.9458,-1.46248 5.9707,-2.08789 4.0498,-1.25081 8.2269,-2.21888 12.4629,-2.89843 5.2949,-0.84945 10.6816,-1.24888 16.0332,-1.18555 z"
       transform="matrix(0.46206593,0,0,0.46206593,-290.1184,172.51267)" /><path
       fill-rule="evenodd"
       clip-rule="evenodd"
       fill="#025581"
       d="m 105.121,634.822 c 11.33,0 22.664,0.205 33.986,-0.076 6.878,-0.17 13.534,-1.743 18.937,-6.483 9.909,-8.696 8.313,-22.345 -3.376,-28.431 -9.12,-4.748 -19.267,-5.919 -29.134,-8.042 -9.742,-2.095 -19.364,-4.563 -28.49,-8.703 -22.548,-10.229 -30.088,-27.552 -29.437,-49.57 0.823,-27.862 19.526,-41.612 41.433,-47.528 20.557,-5.551 41.47,-5.04 62.406,-2.561 9.408,1.114 18.628,3.229 27.888,5.171 3.076,0.646 3.636,1.888 3.58,4.61 -0.146,6.995 -0.224,14.001 0.03,20.989 0.116,3.201 -0.987,3.854 -3.96,3.834 -18.327,-0.126 -36.654,-0.099 -54.982,-0.044 -5.836,0.018 -11.614,0.704 -17.116,2.789 -6.241,2.364 -11.155,6.043 -11.903,13.308 -0.835,8.107 2.918,13.758 9.827,17.524 7.546,4.114 15.911,5.559 24.2,7.248 13.692,2.79 27.246,6.07 39.442,13.257 18.713,11.026 24.748,28.361 23.105,48.314 -2.52,30.637 -23.331,43.524 -47.649,48.31 -20.96,4.124 -42.075,2.547 -63.138,0.6 -9.933,-0.917 -19.731,-2.741 -29.524,-4.598 -3.18,-0.603 -4.753,-1.728 -4.526,-5.489 0.412,-6.806 0.258,-13.659 0.049,-20.485 -0.093,-3.016 0.708,-3.994 3.865,-3.94 11.493,0.196 22.991,0.077 34.488,0.077 -0.001,-0.028 -0.001,-0.054 -0.001,-0.081 z"
       id="path12"
       style="fill:#ffffff;fill-opacity:1" /><path
       fill-rule="evenodd"
       clip-rule="evenodd"
       fill="#025581"
       d="m 26.077,526.172 c -0.001,34.65 0.072,69.302 -0.101,103.952 -0.02,4.039 1.159,5.151 5.001,4.852 4.139,-0.323 8.326,0.015 12.488,-0.098 2.141,-0.058 2.934,0.707 2.921,2.867 -0.058,9.161 -0.027,18.324 0.046,27.486 0.017,1.991 -0.845,2.545 -2.707,2.541 -19.491,-0.041 -38.982,-0.069 -58.473,0.024 -2.868,0.014 -2.709,-1.626 -2.708,-3.531 0.014,-21.99 -0.026,-43.979 0.023,-65.97 0.045,-20.32 0.228,-40.64 0.264,-60.96 0.048,-26.987 -0.066,-53.976 0.102,-80.962 0.023,-3.723 -0.861,-5.049 -4.664,-4.666 -3.463,0.349 -7.015,-0.19 -10.481,0.145 -4.004,0.387 -5.557,-0.678 -5.36,-5.054 0.374,-8.313 0.223,-16.656 0.056,-24.982 -0.058,-2.9 0.517,-4.078 3.782,-4.051 18.657,0.158 37.317,0.212 55.972,-0.024 4.297,-0.055 3.863,2.221 3.861,4.978 -0.032,34.485 -0.021,68.969 -0.022,103.453 z"
       id="path14"
       style="fill:#ffffff" /><path
       id="path24"
       style="fill:#ffffff;fill-opacity:1;stroke-width:2.16419"
       d="m 2170.7988,140.83984 c -15.2111,-0.21742 -30.8164,7.8959 -44.8789,18.73243 -55.2908,42.6043 -93.7722,98.01014 -119.7187,162.21093 -17.3569,42.94409 -11.4466,65.79112 23.1523,97.03125 38.698,34.9409 84.2399,58.73334 131.666,79.21094 14.4958,6.25885 29.7346,10.7084 44.4922,16.26172 34.5838,13.00897 62.181,3.75577 86.2793,-22.73828 40.3233,-44.32917 66.7626,-95.83893 81.7735,-153.56445 11.4983,-44.2188 -1.4006,-81.44193 -32.0997,-113.7793 -27.4246,-28.88982 -59.8281,-50.47108 -96.2363,-66.24805 -21.5683,-9.34499 -43.6866,-16.57355 -71.3926,-16.96094 -1.01,-0.0902 -2.023,-0.14175 -3.0371,-0.15625 z m 6.0293,32.42774 c 1.0097,-0.0249 2.0252,-0.0202 3.043,0.0117 6e-4,2e-5 0,-2e-5 0,0 1.0172,0.0319 2.0378,0.0916 3.0625,0.17968 7e-4,6e-5 0,-5e-5 0,0 1.0247,0.0881 2.0521,0.20397 3.084,0.34766 6e-4,9e-5 0,-9e-5 0,0 1.032,0.14373 2.0669,0.31494 3.1055,0.51367 0,2.5e-4 0,-2.4e-4 0,0 1.0381,0.19868 2.0807,0.42665 3.125,0.67969 6e-4,1.5e-4 0,-1.5e-4 0,0 3.397,0.8228 6.7614,1.69962 10.0937,2.63086 3.3334,0.93157 6.6331,1.91725 9.9004,2.95898 3.2668,1.04152 6.4998,2.13774 9.6992,3.29102 3.1999,1.1535 6.365,2.36392 9.4961,3.63086 6.2613,2.53334 12.383,5.29424 18.3613,8.29101 3.0366,1.52214 6.0347,3.10771 8.9961,4.75196 2.8236,1.56774 5.6131,3.19082 8.3672,4.87109 0.089,0.054 0.1772,0.10797 0.2657,0.16211 2.7535,1.68494 5.4715,3.42742 8.1543,5.22656 0.083,0.0554 0.1654,0.11049 0.248,0.16602 2.7258,1.83315 5.4151,3.72292 8.0664,5.67578 2.6816,1.97521 5.3256,4.014 7.9297,6.11328 0.01,0.006 0.016,0.0114 0.023,0.0176 0.01,0.005 0.012,0.0107 0.018,0.0156 2.6012,2.09798 5.1631,4.25703 7.6856,6.48047 0,0.004 0.01,0.008 0.014,0.0117 0,0.003 0.01,0.005 0.01,0.008 2.499,2.20332 4.9566,4.47077 7.3769,6.79883 0.03,0.0292 0.061,0.0567 0.092,0.0859 0.029,0.028 0.057,0.0579 0.086,0.0859 7.324,7.05964 14.286,14.69262 20.8652,22.92578 2.8232,3.53304 5.3709,7.18633 7.5801,10.97266 1.1046,1.89316 2.1252,3.82017 3.0527,5.78124 0.4638,0.98054 0.9038,1.97067 1.3203,2.96876 0.8331,1.99617 1.5708,4.02702 2.2032,6.0957 2.2132,7.24036 3.1476,14.93364 2.4687,23.14648 -1.9613,25.76202 -9.294,49.61693 -19.623,72.36133 -3.0988,6.82332 -6.4674,13.54645 -10.041,20.19141 -3.5737,6.64496 -7.3532,13.21303 -11.2735,19.72265 -10.8742,18.05221 -22.7596,35.38194 -37.7031,50.2793 -3.4483,3.4378 -7.0604,6.74687 -10.8594,9.9043 -1.0311,0.85662 -2.0697,1.63303 -3.1191,2.33007 -5e-4,2.9e-4 0,-2.8e-4 0,0 -1.0494,0.69694 -2.1069,1.3155 -3.1777,1.85743 0,6.4e-4 0,0.001 0,0.002 0,6.6e-4 0,0.001 0,0.002 -1.0699,0.54105 -2.1518,1.00563 -3.2461,1.39649 -1.087,0.38824 -2.1867,0.70274 -3.3008,0.94726 -0.01,0.002 -0.016,0.004 -0.023,0.006 -0.014,0.003 -0.027,0.005 -0.041,0.008 -1.0935,0.23721 -2.2015,0.40656 -3.3242,0.50976 -1.1367,0.1045 -2.2895,0.13601 -3.459,0.10742 -0.035,-8.5e-4 -0.068,0.005 -0.1035,0.004 -1.1886,-0.033 -2.3955,-0.1333 -3.6211,-0.29883 -1.2242,-0.16535 -2.4681,-0.39446 -3.7324,-0.6875 -6e-4,-1.4e-4 0,1.4e-4 0,0 -2.7001,-0.62638 -5.383,-1.29488 -8.0489,-2 0,-3.2e-4 0,3.2e-4 0,0 -2.6664,-0.70531 -5.3151,-1.45068 -7.9492,-2.23047 -6e-4,-1.7e-4 0,1.8e-4 0,0 -2.6341,-0.7798 -5.252,-1.59533 -7.8555,-2.44531 -6e-4,-1.9e-4 0,1.9e-4 0,0 -2.6035,-0.85 -5.1928,-1.73452 -7.7675,-2.65039 -6e-4,-2.1e-4 0,2e-4 0,0 -7.7255,-2.74809 -15.3243,-5.78306 -22.8242,-9.04688 -6e-4,-2.3e-4 0,2.4e-4 0,0 -2.4996,-1.08779 -4.9885,-2.20336 -7.4668,-3.33984 -5e-4,-2.5e-4 0,2.5e-4 0,0 -2.4783,-1.1365 -4.9456,-2.29567 -7.4043,-3.47656 -5e-4,-2.6e-4 0,2.5e-4 0,0 -2.4587,-1.18091 -4.9086,-2.38447 -7.3496,-3.60547 -5e-4,-2.6e-4 0,2.6e-4 0,0 -0.039,-0.0197 -0.078,-0.0409 -0.1172,-0.0606 -4.8026,-2.4038 -9.5717,-4.88191 -14.3164,-7.41601 -0.04,-0.0212 -0.08,-0.0414 -0.1192,-0.0625 -5e-4,-2.7e-4 0,2.7e-4 0,0 -4.8227,-2.57695 -9.6189,-5.21342 -14.3965,-7.89063 -5e-4,-2.8e-4 0,2.8e-4 0,0 -4.7776,-2.67722 -9.536,-5.39557 -14.2832,-8.13867 -5e-4,-2.8e-4 0,2.8e-4 0,0 -2.7267,-1.57606 -5.4322,-3.18249 -8.1192,-4.81641 -4e-4,-2.8e-4 0,2.9e-4 0,0 -2.687,-1.63393 -5.3551,-3.29768 -8.002,-4.99023 -4e-4,-2.9e-4 0,2.9e-4 0,0 -1.7352,-1.1096 -3.4482,-2.25166 -5.166,-3.38672 -0.9031,-0.59669 -1.8166,-1.17748 -2.7149,-1.78125 -2.6064,-1.75197 -5.1922,-3.53358 -7.7578,-5.3457 -4e-4,-3.1e-4 0,3e-4 0,0 -1.8573,-1.31182 -3.6917,-2.65827 -5.5274,-4.00196 -0.7006,-0.51285 -1.4119,-1.00981 -2.1094,-1.52734 -2.5241,-1.87285 -5.0271,-3.77641 -7.5097,-5.71094 -7e-4,-5.6e-4 0,-10e-4 0,-0.002 -2.483,-1.9348 -4.9436,-3.90117 -7.3847,-5.89844 -4e-4,-3.1e-4 0,3.2e-4 0,0 -2.4411,-1.99728 -4.8609,-4.02737 -7.2598,-6.08789 -3e-4,-3.2e-4 0,3.2e-4 0,0 -1.0705,-0.91946 -2.085,-1.84784 -3.0469,-2.78515 -14.4342,-14.06501 -16.7309,-30.17545 -9.4043,-49.41016 3.1887,-8.36975 6.7072,-16.53191 10.5215,-24.50586 1.2713,-2.65798 2.5759,-5.29502 3.9121,-7.91211 4.0087,-7.85128 8.3038,-15.52214 12.8535,-23.0332 4.5497,-7.51106 9.3535,-14.86169 14.3809,-22.07422 5.0272,-7.21253 10.2775,-14.28651 15.7187,-21.24219 1.8139,-2.31856 3.6488,-4.62291 5.5039,-6.91602 3.7101,-4.58621 7.5002,-9.12351 11.3614,-13.61718 2.7699,-3.2223 5.6268,-6.34353 8.5644,-9.37696 1.4683,-1.51621 2.9569,-3.01128 4.4649,-4.48437 1.5079,-1.47308 3.0359,-2.92672 4.582,-4.35938 6.1855,-5.73186 12.6693,-11.15076 19.4043,-16.34375 2.6762,-2.0634 5.4126,-3.84161 8.2012,-5.34179 2.7886,-1.50024 5.6304,-2.7213 8.5195,-3.67383 4.8128,-1.5868 9.7554,-2.42639 14.8027,-2.55078 z"
       transform="matrix(0.46206593,0,0,0.46206593,-290.1184,172.51267)" /><path
       id="path28"
       style="fill:#ffffff;fill-opacity:1;stroke-width:2.16419"
       d="m 2195.8789,230.22656 c -1.6407,-0.006 -3.2926,0.0299 -4.9531,0.10742 -50.8651,2.37629 -92.8931,47.3778 -90.5645,96.97461 2.5711,54.73029 45.8398,95.21097 99.5918,93.16797 50.4214,-1.91747 93.3047,-47.73503 90.6016,-96.79297 -2.9457,-53.39524 -43.8145,-93.27172 -94.6758,-93.45703 z m 0.053,30.29297 c 35.4777,0.0758 64.2128,28.92954 64.3946,64.6582 0.012,2.26605 -0.091,4.50239 -0.3008,6.70508 -0.2094,2.20269 -0.5255,4.37109 -0.9453,6.5 -0.4198,2.12892 -0.9427,4.21895 -1.5625,6.26367 -0.31,1.02235 -0.644,2.03192 -1.002,3.03125 -0.7161,1.99933 -1.527,3.95017 -2.4277,5.84961 -0.9002,1.89838 -1.8907,3.74501 -2.9649,5.53321 -0.5375,0.89482 -1.0947,1.77534 -1.6738,2.64062 -1.7364,2.59443 -3.657,5.05206 -5.7441,7.35742 -0.6957,0.76846 -1.4105,1.52018 -2.1426,2.25391 -2.9283,2.93492 -6.1414,5.58683 -9.5996,7.91406 -1.7295,1.16395 -3.5208,2.24586 -5.3672,3.24219 -3.6915,1.99177 -7.6066,3.63919 -11.7031,4.89844 -1.0243,0.31488 -2.0611,0.60526 -3.1074,0.87109 -2.0921,0.5314 -4.2279,0.96352 -6.4004,1.29102 -1.0866,0.16384 -2.1824,0.30122 -3.2871,0.41211 -2.2096,0.22167 -4.4541,0.33781 -6.7286,0.33984 -1.1155,10e-4 -2.2261,-0.0273 -3.33,-0.084 -1.104,-0.0567 -2.2003,-0.14296 -3.2911,-0.25586 -3.2722,-0.33871 -6.4829,-0.92636 -9.6093,-1.74414 -2.0843,-0.54516 -4.1305,-1.19252 -6.1348,-1.93555 -1.0022,-0.37153 -1.9947,-0.7668 -2.9746,-1.18555 -1.9598,-0.83745 -3.8727,-1.76788 -5.7344,-2.78515 -2.7925,-1.52598 -5.4682,-3.24781 -8.0058,-5.14454 -2.5377,-1.89666 -4.9379,-3.96851 -7.1797,-6.19531 -3.7361,-3.71104 -7.0336,-7.85262 -9.7969,-12.33008 -3e-4,-4.7e-4 3e-4,-10e-4 0,-0.002 -0.5524,-0.89512 -1.0848,-1.80337 -1.5937,-2.72461 -3e-4,-5e-4 2e-4,-10e-4 0,-0.002 -3.5646,-6.45224 -6.0457,-13.52618 -7.1836,-20.96485 -0.1626,-1.06266 -0.2974,-2.1322 -0.4043,-3.20898 -0.107,-1.07678 -0.1865,-2.16061 -0.2364,-3.25 -0.05,-1.08939 -0.069,-2.18466 -0.061,-3.28516 0.01,-1.10773 0.045,-2.20968 0.1113,-3.30468 0.066,-1.095 0.1614,-2.18282 0.2832,-3.26368 3.5327,-31.34471 30.2059,-56.44334 62.3594,-58.01757 1.1087,-0.0543 2.2227,-0.0805 3.3437,-0.0781 z"
       transform="matrix(0.46206593,0,0,0.46206593,-290.1184,172.51267)" /></g></g><g
   id="g865"
   transform="matrix(0.5151463,0,0,0.5151463,198.20536,19.710632)"
   style="opacity:1;fill:#ffffff"><g
     id="g863"
     style="fill:#ffffff"><path
       id="path847"
       style="fill:#ffffff;fill-opacity:1;stroke-width:2.16419"
       d="m 331.86523,530.68164 c -37.85823,0.63627 -75.73921,0.58871 -113.59961,0.0195 -8.76931,-0.13201 -12.08018,2.52512 -14.88281,10.79883 -50.78063,149.773 -102.01762,299.39075 -152.904294,449.12695 -2.220463,6.5337 -4.91876,9.41668 -12,9.00977 -9.704243,-0.55836 -19.477452,0.14679 -29.2011722,-0.2168 -6.5769835,-0.24455 -9.52358619,1.22521 -9.2617188,8.84961 0.62978025,18.3719 0.48124465,36.7873 0.05273437,55.17 -0.15365772,6.5531 1.52569683,8.6206 8.35156253,8.5253 28.4872761,-0.3938 56.9810511,-0.1664 85.4726561,-0.1621 28.853022,0 57.705572,-0.12 86.558592,0.1094 5.65071,0.043 8.40757,-0.7966 8.25391,-7.4883 -0.44366,-19.1033 -0.42503,-38.2306 0.008,-57.334 0.14933,-6.5661 -2.4773,-7.91209 -8.19727,-7.67186 -7.92094,0.33328 -15.86489,-0.005 -23.79882,0.10547 -5.12265,0.0692 -8.26828,-0.18021 -5.83789,-7.16406 9.91417,-28.50676 19.34563,-57.18213 28.71875,-85.875 1.3418,-4.11414 3.22598,-5.71374 7.59765,-5.70508 58.42456,0.1147 116.84867,0.11143 175.27539,-0.01 4.24399,-0.009 6.45946,1.26135 7.89649,5.39063 10.01372,28.80541 20.05381,57.59861 30.55664,86.22656 2.37628,6.47743 0.39611,7.40571 -5.34766,7.21094 -8.28669,-0.28351 -16.59437,0.15217 -24.8789,-0.14649 -5.6334,-0.2056 -7.37907,1.84849 -7.27735,7.54679 0.34411,19.1055 0.39684,38.2305 -0.0273,57.336 -0.145,6.5294 2.36418,7.5976 8.14258,7.5781 57.70388,-0.1818 115.40744,-0.1656 173.11132,-0.01 5.34556,0.013 7.68264,-1.0248 7.57227,-7.0585 -0.35926,-19.467 -0.3629,-38.9533 0.0137,-58.418 0.1212,-6.2156 -2.6633,-7.11378 -7.75781,-6.98826 -9.37096,0.22724 -18.82541,-0.6901 -28.10547,0.25781 -9.73887,0.99765 -13.51959,-2.9629 -16.54297,-11.89453 C 449.5498,839.30033 398.81438,690.95965 348.54883,542.45703 c -3.07099,-9.07013 -7.10704,-11.9377 -16.6836,-11.77539 z m -54.7207,93.6582 c 7.01199,21.75231 14.06514,43.48883 21.02735,65.25196 6.49582,20.3142 12.90508,40.65875 19.37304,60.98242 3.23398,10.16183 6.48413,20.319 9.76563,30.46484 3.28149,10.14567 6.59561,20.28084 9.96093,30.39844 0.41905,1.25929 0.74751,2.38655 0.98438,3.39648 0.23686,1.00994 0.38199,1.90123 0.42969,2.6875 0.0477,0.78628 -0.002,1.46832 -0.15039,2.05664 -0.29693,1.17665 -0.99173,1.98247 -2.11524,2.52149 -0.56175,0.26951 -1.23087,0.47244 -2.00976,0.62109 -0.77889,0.14866 -1.66886,0.24338 -2.67188,0.29688 -1.00301,0.0535 -2.11938,0.0648 -3.35351,0.0488 -9.90065,-0.12823 -19.80169,-0.20412 -29.73243,-0.24805 -29.79221,-0.13148 -59.8494,0.0371 -90.9375,0.0371 22.27388,-66.60089 44.28856,-132.42934 66.30274,-198.25977 1.04314,-0.0844 2.08381,-0.17145 3.12695,-0.25586 z"
       transform="matrix(0.46206593,0,0,0.46206593,-290.1184,172.51267)" /><path
       id="path849"
       style="fill:#ffffff;fill-opacity:1;stroke-width:2.16419"
       d="m 2286.7246,0.00195313 c -3.9782,0.06176827 -8.5792,1.80889697 -14.0703,5.17773437 -35.8953,22.0228315 -71.9095,43.8636435 -107.4629,66.4296875 -8.3018,5.269811 -15.242,5.318984 -24.1152,2.228516 C 2085.1101,54.321195 2028.9966,35.23145 1972.877,16.15625 c -19.2224,-6.5336996 -29.199,2.50786 -26.1973,22.273438 5.1811,34.118507 9.4053,68.384132 14.5215,102.515622 1.1427,7.60931 -1.4536,10.58725 -8.2578,13.19727 -52.3346,20.06207 -104.5006,40.56494 -156.7637,60.80664 -7.9339,3.07315 -15.7304,6.06508 -16.9727,15.93164 -1.253,9.9423 5.5681,14.63584 12.7207,19.37109 37.2328,24.63502 74.2209,49.64333 111.6289,74.00782 7.038,4.58592 7.8907,7.72952 3.4649,14.96875 -28.1475,46.06269 -55.7603,92.44692 -83.6113,138.6914 -3.9735,6.59863 -7.959,12.93532 -3.4336,20.98828 4.7092,8.37327 12.4228,8.58156 20.6035,8.56641 48.6813,-0.0887 97.3637,0.17381 146.0429,-0.22656 8.0032,-0.0649 11.3809,2.34066 13.1231,10.0625 21.5056,95.34353 43.3161,190.61064 64.8672,285.94336 1.9045,8.41654 5.3696,15.14893 14.1562,17.14648 8.1764,1.85688 13.5364,-3.29334 18.2305,-9.11719 53.5703,-66.44506 107.2283,-132.81787 160.6406,-199.39062 13.6063,-16.96295 13.2379,-17.24372 33.4688,-8.63672 43.9894,18.72244 88.1253,37.11647 131.9199,56.28906 18.0667,7.91013 29.3336,-5.416 26.2734,-20.57617 -1.6296,-8.07244 -1.7308,-16.45776 -2.5078,-24.70117 -4.0254,-42.63245 -7.9622,-85.27138 -12.1543,-127.88867 -0.6968,-7.11587 1.2281,-11.72325 7.3203,-16.20313 31.3332,-23.03784 62.2321,-46.66651 93.2969,-70.07226 5.3066,-3.99943 10.1049,-8.27536 9.75,-15.76563 0.2749,-7.33661 -4.6769,-11.73803 -9.1914,-16.38672 -23.8386,-24.57658 -47.37,-49.45977 -71.7129,-73.52344 -6.4298,-6.3584 -6.9651,-12.20299 -5.2402,-20.05468 7.395,-33.65321 14.5182,-67.36432 21.6211,-101.07813 3.5925,-17.03653 -0.045,-22.70371 -16.8692,-27.18359 -35.0512,-9.332 -70.0211,-18.9894 -105.2109,-27.76953 -6.5878,-1.64263 -9.6811,-4.79392 -12.2305,-10.35157 -14.3897,-31.369978 -28.986,-62.641361 -43.4883,-93.955074 -4.4271,-9.5576184 -9.3306,-14.13615 -15.9609,-14.03320287 z M 2276.3457,42.304688 c 0.5985,-0.02133 1.1525,0.05765 1.6719,0.236328 2.0794,0.7133 3.6188,3.025879 5.3652,6.945312 0.1622,0.363742 0.3317,0.724298 0.4942,1.087891 5.7858,12.945698 11.7733,25.800627 17.7695,38.652343 6.4511,13.826158 12.9034,27.652188 19.0996,41.591798 4.192,9.42723 10.3484,14.5533 20.334,17.05078 31.7141,7.93177 63.169,16.90158 94.9199,24.67969 8.726,2.13822 10.6779,5.21469 8.6934,13.92773 -7.4946,32.92171 -13.8864,66.09651 -21.4004,99.01172 -1.963,8.60267 0.4725,14.46617 6.1015,20.24024 22.8972,23.48799 45.5454,47.22024 68.6309,70.51562 4.3439,4.38175 5.2514,6.55141 1.2226,10.08594 -0.2716,0.23847 -0.6419,0.50779 -0.9589,0.75976 -0.3525,0.27998 -0.6567,0.54424 -1.0664,0.84375 0,0.001 0,0.003 0,0.004 -7.1215,5.20816 -14.2072,10.46754 -21.2715,15.75391 -4.7467,3.55209 -9.476,7.12654 -14.209,10.69726 -2.3127,1.74468 -4.6322,3.47982 -6.9434,5.22656 -7e-4,5.5e-4 0,10e-4 0,0.002 -14.0812,10.64241 -28.1445,21.3072 -42.3203,31.82031 0,10e-4 0,0.003 0,0.004 -1.154,0.85617 -2.2196,1.72281 -3.1973,2.60547 -0.9791,0.88383 -1.8703,1.78386 -2.6758,2.71093 0,10e-4 0,0.003 0,0.004 -4.8304,5.56147 -6.5682,12.05307 -5.5508,21.27344 4.9387,44.70574 8.3042,89.58818 12.2344,134.40429 0.1515,1.72703 0.019,3.47974 0.019,5.0293 0,4.3e-4 0,-4.3e-4 0,0 0,6e-4 0,10e-4 0,0.002 -0.563,0.18749 -1.1049,0.31338 -1.6269,0.38672 -1.6299,0.22981 -3.0643,-0.0592 -4.4102,-0.54297 -1.6057,-0.57689 -3.0748,-1.42623 -4.5508,-2.07422 -0.07,-0.0306 -0.1451,-0.0681 -0.2148,-0.0977 -41.3599,-17.53646 -82.6608,-35.21323 -123.9688,-52.87305 -6.7988,-2.90867 -11.4987,-4.07981 -15.6523,-3.09375 -1.0383,0.24684 -2.0429,0.62761 -3.0371,1.15039 -0.5064,0.26607 -1.0112,0.6774 -1.5156,1.01758 -0.4852,0.32735 -0.9698,0.58103 -1.459,0.97852 -8e-4,6.1e-4 0,10e-4 0,0.002 -0.9981,0.81118 -2.0096,1.76998 -3.0605,2.88281 -1.0517,1.11357 -2.142,2.38191 -3.295,3.81055 -50.668,62.77675 -101.2829,125.59624 -151.9726,188.35351 -1.628,2.01433 -2.989,4.43631 -5.7363,6.05469 0,7.8e-4 0,10e-4 0,0.002 -0.4569,0.26891 -0.9511,0.51549 -1.4922,0.73438 0,8e-4 0,10e-4 -0.01,0.002 -0.5425,0.21947 -1.1309,0.41233 -1.7734,0.57032 -4.718,-20.60745 -9.4304,-41.09299 -14.0899,-61.5879 -15.9284,-70.07657 -31.8289,-140.15996 -47.7617,-210.23437 -3.1662,-13.92009 -8.1186,-17.97878 -22.3828,-17.99609 -46.5085,-0.0584 -93.0171,-0.0215 -140.2246,-0.0215 0.2662,-5.81302 4.0053,-9.42646 6.4141,-13.46484 24.728,-41.42915 49.6431,-82.74679 74.4101,-124.1543 7.605,-12.71247 5.9178,-19.77432 -6.3965,-27.99609 -32.636,-21.79127 -65.3252,-43.50831 -97.9375,-65.33203 -0.09,-0.0604 -0.1955,-0.12248 -0.2871,-0.18165 -1.3094,-0.84489 -2.7304,-1.59966 -4.1016,-2.59765 -0.8646,-0.62855 -1.6991,-1.35231 -2.4667,-2.28516 -0.6517,-0.79241 -1.2528,-1.72591 -1.7715,-2.86328 -0.011,-0.0231 -0.025,-0.0353 -0.035,-0.0586 0,-5.4e-4 0,-0.001 0,-0.002 15.635,-6.21069 31.1307,-12.44604 46.6856,-18.53125 0,-5.2e-4 0,-0.001 0,-0.002 34.1344,-13.35038 68.3264,-26.55884 102.4414,-39.95898 0,-5.9e-4 0,-0.001 0,-0.002 1.6411,-0.64488 3.115,-1.27175 4.4355,-1.90039 0,-6.8e-4 0,-0.001 0,-0.002 1.32,-0.62853 2.4855,-1.25864 3.5098,-1.91406 0,-8.4e-4 0,-0.001 0,-0.002 6.1464,-3.93718 7.1828,-8.75166 5.7969,-19.10351 -4.1012,-30.65364 -8.5132,-61.260376 -12.7637,-91.894532 -0.1623,-1.168421 -0.4486,-2.365815 -0.4492,-3.628907 -10e-5,-0.04994 -0.013,-0.09632 -0.012,-0.146484 0,-0.114672 0.053,-0.239578 0.061,-0.355469 0.036,-0.551606 0.093,-1.107428 0.2949,-1.691406 0.2443,-0.705595 0.6341,-1.436671 1.2325,-2.201172 28.5543,9.702079 57.4138,19.47603 86.2539,29.314453 25.5093,8.70655 50.9934,17.495787 76.4941,26.230467 0.9429,0.32286 1.8759,0.59787 2.8008,0.82227 0,2.9e-4 0,-2.9e-4 0,0 0.925,0.22391 1.8419,0.39914 2.752,0.52148 0.9118,0.12281 1.8186,0.19339 2.7187,0.21094 1.0756,0.0207 2.1431,-0.0608 3.207,-0.19531 0.7151,-0.0903 1.4307,-0.19097 2.1426,-0.35352 0.518,-0.11827 1.0338,-0.29782 1.5508,-0.45508 1.0197,-0.31021 2.0389,-0.68877 3.0586,-1.15429 0.2304,-0.10518 0.4608,-0.17971 0.6914,-0.29297 0,-6.2e-4 0,-0.001 0,-0.002 0.8836,-0.43422 1.7683,-0.92746 2.6563,-1.48242 0,-7.7e-4 0,-0.001 0,-0.002 16.7864,-10.493405 33.6713,-20.82938 50.5351,-31.197266 0,-7.6e-4 0,-0.0012 0,-0.002 8.4313,-5.183566 16.856,-10.376022 25.2617,-15.59961 0,-7.65e-4 0,-0.0012 0,-0.002 8.4058,-5.223598 16.7922,-10.479797 25.1426,-15.791016 0,-8.68e-4 0,-0.0011 0,-0.002 1.9499,-1.240074 3.5775,-2.080885 4.9785,-2.523437 0.4389,-0.13861 0.8199,-0.168184 1.2168,-0.228516 0.2371,-0.03593 0.5028,-0.128744 0.7266,-0.136718 z"
       transform="matrix(0.46206593,0,0,0.46206593,-290.1184,172.51267)" /><path
       id="path851"
       style="fill:#ffffff;fill-opacity:1;stroke-width:2.16419"
       d="m 1680.9453,669.35156 c -48.2147,0.1204 -95.8859,6.5024 -143.3867,14.97656 -6.0165,1.07344 -7.6986,3.1571 -7.5645,8.91602 0.3377,14.41353 0.6586,28.86851 -0.086,43.25391 -0.4523,8.70871 1.5672,11.50358 10.9316,11.38672 44.6993,-0.56053 89.4115,-0.21564 134.1172,-0.26758 10.5029,-0.013 20.8645,1.19389 30.8653,4.23242 17.4866,5.31309 27.4104,16.9725 30.291,35.39844 2.3676,15.12987 0.6735,30.22348 1.5781,45.29492 0.448,7.47079 -4.3168,6.85003 -9.1191,6.8457 -30.6428,-0.0281 -61.2884,0.0198 -91.9356,-0.043 -13.3466,-0.026 -26.6169,0.72191 -39.7168,3.37305 -39.4164,7.97722 -70.2086,27.16204 -85.0117,66.47461 -7.7521,20.58581 -9.5348,42.20762 -7.416,63.83008 4.5275,46.17959 25.6368,81.73709 70.6953,98.19139 34.4778,12.5913 69.9752,11.0392 104.6953,-0.7773 23.2629,-7.9188 40.492,-24.1609 57.0156,-45.6816 2.8243,15.435 5.4819,27.967 7.25,40.6211 0.7164,5.1053 2.5322,6.5212 7.4297,6.5039 40.3795,-0.1494 80.7613,-0.145 121.1387,0 4.9084,0.017 7.0647,-1.1023 6.9824,-6.5625 -0.2878,-19.4648 -0.2636,-38.9376 -0.023,-58.4024 0.069,-5.5057 -1.5186,-7.74156 -7.336,-7.50783 -10.0764,0.40687 -20.2239,-0.44259 -30.2636,0.31055 -7.9729,0.60168 -10.3862,-1.47492 -10.3321,-9.88281 0.3939,-61.28996 0.2175,-122.58288 0.211,-183.875 0,-15.48913 -0.648,-30.93612 -3.336,-46.23047 -7.0899,-40.32542 -29.1336,-68.12991 -68.5976,-80.81641 -18.9151,-6.08138 -38.5982,-8.50456 -58.3789,-9.21875 -6.9111,-0.2505 -13.8095,-0.36095 -20.6973,-0.34375 z m 49.9629,229.31055 c 0.9901,-0.007 1.927,-10e-4 2.7715,0.0957 0.4222,0.0486 0.8208,0.1206 1.1914,0.22461 0.3706,0.10402 0.7125,0.24084 1.0215,0.41992 0.3089,0.17909 0.5851,0.40006 0.8222,0.67383 0.2372,0.27377 0.4366,0.60022 0.5918,0.98828 0.1553,0.38807 0.2669,0.8374 0.3301,1.35938 0.063,0.52197 0.078,1.11551 0.039,1.79101 -0.1007,1.74678 -0.1649,3.49475 -0.2012,5.24219 -0.1089,5.24249 0.018,10.48809 0.055,15.73633 0.012,1.74934 0.014,3.4981 -0.01,5.24805 0,6.5e-4 0,10e-4 0,0.002 -0.02,1.74997 -0.061,3.49952 -0.1367,5.25 -0.076,1.75048 -0.1858,3.50101 -0.3418,5.25195 -0.156,1.75095 -0.3589,3.50254 -0.6191,5.25391 -0.1896,1.27768 -0.4116,2.53565 -0.6641,3.77539 -0.2525,1.23974 -0.5344,2.46058 -0.8476,3.66211 -0.3132,1.20153 -0.6576,2.38382 -1.0293,3.54687 -0.3718,1.16306 -0.7711,2.30734 -1.1993,3.43164 -0.4281,1.12431 -0.8848,2.22916 -1.3671,3.31446 -0.4821,1.08476 -0.9914,2.14979 -1.5254,3.19531 -3e-4,5.2e-4 2e-4,10e-4 0,0.002 -0.5344,1.04602 -1.0936,2.07166 -1.6778,3.07813 -1.1681,2.01248 -2.4346,3.94606 -3.789,5.79883 -3e-4,4.2e-4 3e-4,0.002 0,0.002 -0.6771,0.92616 -1.3773,1.83094 -2.0977,2.7168 -3e-4,3.9e-4 3e-4,0.002 0,0.002 -0.7207,0.88623 -1.4628,1.75204 -2.2246,2.59766 -0.7615,0.84526 -1.5452,1.67018 -2.3457,2.47461 -0.8011,0.80508 -1.6191,1.58961 -2.457,2.35351 -3.3505,3.05438 -6.9879,5.7787 -10.8399,8.16406 -1.9255,1.19231 -3.9049,2.30035 -5.9297,3.32227 -1.0126,0.51111 -2.0381,1.00066 -3.0722,1.46875 -2.0678,0.93583 -4.1775,1.78653 -6.3184,2.54883 -1.0707,0.3812 -2.1506,0.7407 -3.2363,1.0781 -2.171,0.6746 -4.37,1.262 -6.5879,1.7598 -1.1093,0.249 -2.2241,0.4753 -3.3418,0.6797 -2.2349,0.4085 -4.4864,0.7285 -6.7422,0.957 -2.2564,0.2286 -4.5174,0.3657 -6.7773,0.4121 -1.13,0.023 -2.2592,0.025 -3.3867,0 -1.1276,-0.023 -2.254,-0.07 -3.377,-0.1387 -2.5868,-0.1585 -5.171,-0.4004 -7.7383,-0.7481 -1.2836,-0.1738 -2.5616,-0.3738 -3.8359,-0.6035 -1.2744,-0.2296 -2.5446,-0.488 -3.8067,-0.7793 -1.262,-0.2912 -2.5168,-0.6142 -3.7636,-0.9726 -1.2469,-0.3585 -2.4863,-0.7522 -3.7149,-1.1836 -1.2286,-0.4314 -2.4469,-0.9021 -3.6543,-1.4121 -1.2074,-0.51 -2.4026,-1.05998 -3.5859,-1.65432 -1.3107,-0.65832 -2.5742,-1.3497 -3.7891,-2.07422 -1.2149,-0.72452 -2.3808,-1.4826 -3.5,-2.27344 -1.1191,-0.79083 -2.1913,-1.61538 -3.2148,-2.47265 -1.0235,-0.85727 -1.9999,-1.74611 -2.9278,-2.66992 -0.9278,-0.92382 -1.8063,-1.88257 -2.6386,-2.87305 -0.8323,-0.99048 -1.6167,-2.01306 -2.3535,-3.07031 -0.7368,-1.05726 -1.4271,-2.14734 -2.0684,-3.27149 -0.6413,-1.12414 -1.2353,-2.28345 -1.7812,-3.47461 -0.546,-1.19115 -1.0436,-2.41555 -1.4942,-3.67382 -0.4506,-1.25828 -0.8536,-2.54949 -1.209,-3.875 -0.3553,-1.32552 -0.6637,-2.68527 -0.9238,-4.07813 -0.2601,-1.39286 -0.4718,-2.81896 -0.6367,-4.2793 -0.1649,-1.46033 -0.2818,-2.9545 -0.3516,-4.48242 -0.07,-1.52791 -0.094,-3.08993 -0.068,-4.68554 0.025,-1.59562 0.099,-3.22525 0.2187,-4.88868 0.1203,-1.66342 0.2887,-3.36044 0.5039,-5.09179 0.1563,-1.25874 0.3614,-2.49895 0.6113,-3.71875 0.012,-0.0587 0.025,-0.11717 0.037,-0.17578 0.2546,-1.2187 0.553,-2.41683 0.8985,-3.59376 0.3536,-1.20482 0.7531,-2.38669 1.1992,-3.54492 0.436,-1.13199 0.9178,-2.24137 1.4395,-3.32617 0.024,-0.0501 0.048,-0.10035 0.072,-0.15039 0.5135,-1.05772 1.0676,-2.09153 1.6602,-3.10156 0.027,-0.0463 0.055,-0.0924 0.082,-0.13867 0.5974,-1.00993 1.2339,-1.99566 1.9082,-2.95508 0.03,-0.0424 0.06,-0.0846 0.09,-0.12695 0.6935,-0.97967 1.4239,-1.93343 2.1953,-2.85743 0.7875,-0.94333 1.6147,-1.85579 2.4804,-2.73828 0.8658,-0.88248 1.7699,-1.73395 2.711,-2.55273 0.9255,-0.80522 1.8891,-1.57749 2.8847,-2.31836 0.032,-0.0239 0.064,-0.0485 0.096,-0.0723 0.984,-0.72846 2.0013,-1.42665 3.0508,-2.08984 0.031,-0.0197 0.063,-0.039 0.094,-0.0586 1.0694,-0.67255 2.1702,-1.30989 3.3047,-1.91211 1.1369,-0.60356 2.3083,-1.17101 3.5078,-1.70118 0.027,-0.0118 0.053,-0.0234 0.08,-0.0351 1.1893,-0.52345 2.4082,-1.01028 3.6562,-1.45899 0.024,-0.009 0.048,-0.0186 0.072,-0.0273 1.2541,-0.44902 2.5372,-0.85954 3.8476,-1.23047 0.02,-0.006 0.04,-0.0119 0.061,-0.0176 1.3249,-0.37353 2.6771,-0.70511 4.0566,-0.99609 2.1215,-0.44745 4.2473,-0.8162 6.3789,-1.11719 2.1317,-0.30099 4.2684,-0.53463 6.4102,-0.70898 2.1417,-0.17436 4.2897,-0.2899 6.4414,-0.35742 2.1517,-0.0675 4.3072,-0.0878 6.4687,-0.0684 8.6373,0.0757 17.2751,0.0156 25.9102,0.0156 13.3141,0.0173 26.629,0.0735 39.9453,-0.0195 z"
       transform="matrix(0.46206593,0,0,0.46206593,-290.1184,172.51267)" /><path
       id="path853"
       style="fill:#ffffff;fill-opacity:1;stroke-width:2.16419"
       d="m 1321.5156,669.06641 c -12.7257,0.057 -25.5415,1.07107 -38.4043,2.82812 -64.3176,8.78663 -112.9756,39.76374 -136.0351,102.66602 -24.5268,66.90387 -23.2068,134.96385 -1.2403,202.0625 15.9458,48.70735 50.2592,80.40335 99.9707,94.43165 25.8622,7.2976 52.3358,8.2403 79.1133,7.8789 38.6698,-0.5216 76.6064,-5.8465 114.3867,-13.4688 7.7349,-1.5625 11.6668,-3.7846 11.0586,-12.8418 -0.9457,-13.9958 -0.8071,-28.1329 -0.041,-42.1503 0.461,-8.4404 -2.475,-10.02 -10.3008,-9.9551 -44.3356,0.3679 -88.6799,0.4298 -133.0156,0.068 -32.1859,-0.2618 -55.3007,-16.71349 -66.957,-46.72652 -5.3715,-13.83353 -7.8148,-28.24227 -9.0528,-43.04102 -0.541,-6.48609 0.8016,-8.0028 7.0215,-7.91406 21.2654,0.30298 42.5318,0.11523 68.0606,0.11523 23.8126,-0.74881 51.9448,1.53397 79.9668,-2.05859 39.0961,-5.01444 69.7867,-21.62629 84.2695,-60.64453 23.6936,-63.82206 -4.0557,-128.73896 -66.5273,-155.44727 -26.7105,-11.42099 -54.2769,-15.9282 -82.2735,-15.80273 z m -0.7597,78.4707 c 1.0703,0.0127 2.1407,0.044 3.207,0.0937 4.2653,0.19886 8.4893,0.6953 12.6074,1.49414 2.0591,0.39942 4.0906,0.87421 6.0879,1.42578 5.9918,1.65471 11.6691,3.99699 16.8047,7.04688 1.1933,0.70863 2.3456,1.45097 3.457,2.22265 1.1114,0.77169 2.1811,1.57322 3.209,2.4043 1.0279,0.83108 2.0143,1.6913 2.957,2.57812 0.9428,0.88683 1.8413,1.79937 2.6973,2.73829 0.856,0.93891 1.6699,1.90327 2.4375,2.89062 0.7676,0.98735 1.4904,1.99912 2.168,3.03125 0.6776,1.03213 1.3085,2.08494 1.8945,3.1582 0.586,1.07327 1.1264,2.16661 1.6191,3.27735 0.4928,1.11074 0.9381,2.23825 1.336,3.38281 0.3979,1.14456 0.7493,2.30574 1.0508,3.48047 0.3014,1.17473 0.5525,2.3632 0.7558,3.56445 0.2034,1.20125 0.3573,2.41651 0.461,3.64063 0.1036,1.22411 0.1578,2.45784 0.1601,3.70117 0,1.24332 -0.046,2.49502 -0.1465,3.75391 -0.1006,1.25888 -0.2538,2.52413 -0.459,3.79492 -0.2051,1.27078 -0.462,2.54713 -0.7734,3.82617 -0.3005,1.23481 -0.6468,2.44279 -1.0371,3.62109 -0.3903,1.1783 -0.8255,2.32764 -1.3027,3.44727 -0.4773,1.11962 -0.9972,2.2088 -1.5586,3.26758 -0.5614,1.05877 -1.164,2.08626 -1.8067,3.08203 -0.6427,0.99576 -1.3257,1.96004 -2.0468,2.89062 -0.7212,0.93059 -1.4805,1.82817 -2.2774,2.69141 -0.7968,0.86323 -1.6323,1.69261 -2.5019,2.48633 -0.8697,0.79371 -1.7752,1.55141 -2.7149,2.27343 -0.9397,0.72203 -1.913,1.40847 -2.9199,2.05665 -1.0069,0.64817 -2.0459,1.25792 -3.1172,1.83007 -1.0713,0.57215 -2.1738,1.10565 -3.3066,1.59961 -1.1328,0.49396 -2.2968,0.94773 -3.4883,1.36133 -1.1915,0.4136 -2.4108,0.78807 -3.6582,1.11914 -1.2475,0.33107 -2.5218,0.61886 -3.8223,0.86524 -1.3005,0.24637 -2.6277,0.44986 -3.9785,0.60937 -1.3508,0.15951 -2.7268,0.27523 -4.125,0.3457 -1.0799,0.0541 -2.1603,0.13672 -3.2402,0.13672 -15.5065,0.009 -31.0131,0.006 -46.5196,0.006 -7.5725,10e-4 -15.1519,-0.1175 -22.7265,-0.1543 -3.7874,-0.0184 -7.5728,-0.0164 -11.3575,0.0313 -3.7846,0.0476 -7.5678,0.1427 -11.3476,0.30664 -1.1265,0.049 -2.1638,0.0738 -3.1133,0.0605 -0.9495,-0.0133 -1.8103,-0.065 -2.584,-0.17187 -0.7736,-0.10691 -1.4598,-0.27 -2.0586,-0.50196 -0.2988,-0.11575 -0.5765,-0.24958 -0.832,-0.40234 -5e-4,-2.7e-4 0,2.8e-4 0,0 -0.2559,-0.15313 -0.4887,-0.32533 -0.7012,-0.51953 -0.425,-0.38841 -0.7634,-0.86319 -1.0156,-1.43945 -0.1262,-0.28814 -0.2314,-0.60043 -0.3145,-0.94141 -0.083,-0.34098 -0.1453,-0.70966 -0.1855,-1.10742 -0.081,-0.79553 -0.074,-1.70966 0.016,-2.75586 0.09,-1.0462 0.2637,-2.22446 0.5234,-3.55274 0.6082,-3.11184 1.2577,-6.19651 1.9668,-9.24609 0.7091,-3.04958 1.4784,-6.06389 2.3262,-9.03516 0.8478,-2.97126 1.7747,-5.90042 2.7988,-8.77734 0.5121,-1.43846 1.0481,-2.86353 1.6113,-4.27539 0.5633,-1.41186 1.1543,-2.8101 1.7735,-4.19336 0.6191,-1.38326 1.2675,-2.75282 1.9472,-4.10547 0.6798,-1.35265 1.3898,-2.68778 2.1348,-4.00781 0.745,-1.32004 1.5248,-2.62474 2.3399,-3.91016 0.815,-1.28541 1.6648,-2.55199 2.5546,-3.80078 0.8898,-1.24879 1.8199,-2.47929 2.7891,-3.68945 0.9693,-1.21016 1.9778,-2.40079 3.0313,-3.57031 1.0534,-1.16953 2.1506,-2.31844 3.2929,-3.44532 1.1423,-1.12688 2.3305,-2.23026 3.5664,-3.3125 1.5005,-1.31434 3.0742,-2.56276 4.7129,-3.74218 1.6387,-1.17943 3.3413,-2.29091 5.1016,-3.33399 1.7602,-1.04307 3.5782,-2.01658 5.4433,-2.92187 1.8652,-0.90529 3.7791,-1.74175 5.7325,-2.50782 1.9533,-0.76606 3.9458,-1.46248 5.9707,-2.08789 4.0498,-1.25081 8.2269,-2.21888 12.4629,-2.89843 5.2949,-0.84945 10.6816,-1.24888 16.0332,-1.18555 z"
       transform="matrix(0.46206593,0,0,0.46206593,-290.1184,172.51267)" /><path
       fill-rule="evenodd"
       clip-rule="evenodd"
       fill="#025581"
       d="m 105.121,634.822 c 11.33,0 22.664,0.205 33.986,-0.076 6.878,-0.17 13.534,-1.743 18.937,-6.483 9.909,-8.696 8.313,-22.345 -3.376,-28.431 -9.12,-4.748 -19.267,-5.919 -29.134,-8.042 -9.742,-2.095 -19.364,-4.563 -28.49,-8.703 -22.548,-10.229 -30.088,-27.552 -29.437,-49.57 0.823,-27.862 19.526,-41.612 41.433,-47.528 20.557,-5.551 41.47,-5.04 62.406,-2.561 9.408,1.114 18.628,3.229 27.888,5.171 3.076,0.646 3.636,1.888 3.58,4.61 -0.146,6.995 -0.224,14.001 0.03,20.989 0.116,3.201 -0.987,3.854 -3.96,3.834 -18.327,-0.126 -36.654,-0.099 -54.982,-0.044 -5.836,0.018 -11.614,0.704 -17.116,2.789 -6.241,2.364 -11.155,6.043 -11.903,13.308 -0.835,8.107 2.918,13.758 9.827,17.524 7.546,4.114 15.911,5.559 24.2,7.248 13.692,2.79 27.246,6.07 39.442,13.257 18.713,11.026 24.748,28.361 23.105,48.314 -2.52,30.637 -23.331,43.524 -47.649,48.31 -20.96,4.124 -42.075,2.547 -63.138,0.6 -9.933,-0.917 -19.731,-2.741 -29.524,-4.598 -3.18,-0.603 -4.753,-1.728 -4.526,-5.489 0.412,-6.806 0.258,-13.659 0.049,-20.485 -0.093,-3.016 0.708,-3.994 3.865,-3.94 11.493,0.196 22.991,0.077 34.488,0.077 -0.001,-0.028 -0.001,-0.054 -0.001,-0.081 z"
       id="path855"
       style="fill:#ffffff;fill-opacity:1" /><path
       fill-rule="evenodd"
       clip-rule="evenodd"
       fill="#025581"
       d="m 26.077,526.172 c -0.001,34.65 0.072,69.302 -0.101,103.952 -0.02,4.039 1.159,5.151 5.001,4.852 4.139,-0.323 8.326,0.015 12.488,-0.098 2.141,-0.058 2.934,0.707 2.921,2.867 -0.058,9.161 -0.027,18.324 0.046,27.486 0.017,1.991 -0.845,2.545 -2.707,2.541 -19.491,-0.041 -38.982,-0.069 -58.473,0.024 -2.868,0.014 -2.709,-1.626 -2.708,-3.531 0.014,-21.99 -0.026,-43.979 0.023,-65.97 0.045,-20.32 0.228,-40.64 0.264,-60.96 0.048,-26.987 -0.066,-53.976 0.102,-80.962 0.023,-3.723 -0.861,-5.049 -4.664,-4.666 -3.463,0.349 -7.015,-0.19 -10.481,0.145 -4.004,0.387 -5.557,-0.678 -5.36,-5.054 0.374,-8.313 0.223,-16.656 0.056,-24.982 -0.058,-2.9 0.517,-4.078 3.782,-4.051 18.657,0.158 37.317,0.212 55.972,-0.024 4.297,-0.055 3.863,2.221 3.861,4.978 -0.032,34.485 -0.021,68.969 -0.022,103.453 z"
       id="path857"
       style="fill:#ffffff" /><path
       id="path859"
       style="fill:#ffffff;fill-opacity:1;stroke-width:2.16419"
       d="m 2170.7988,140.83984 c -15.2111,-0.21742 -30.8164,7.8959 -44.8789,18.73243 -55.2908,42.6043 -93.7722,98.01014 -119.7187,162.21093 -17.3569,42.94409 -11.4466,65.79112 23.1523,97.03125 38.698,34.9409 84.2399,58.73334 131.666,79.21094 14.4958,6.25885 29.7346,10.7084 44.4922,16.26172 34.5838,13.00897 62.181,3.75577 86.2793,-22.73828 40.3233,-44.32917 66.7626,-95.83893 81.7735,-153.56445 11.4983,-44.2188 -1.4006,-81.44193 -32.0997,-113.7793 -27.4246,-28.88982 -59.8281,-50.47108 -96.2363,-66.24805 -21.5683,-9.34499 -43.6866,-16.57355 -71.3926,-16.96094 -1.01,-0.0902 -2.023,-0.14175 -3.0371,-0.15625 z m 6.0293,32.42774 c 1.0097,-0.0249 2.0252,-0.0202 3.043,0.0117 6e-4,2e-5 0,-2e-5 0,0 1.0172,0.0319 2.0378,0.0916 3.0625,0.17968 7e-4,6e-5 0,-5e-5 0,0 1.0247,0.0881 2.0521,0.20397 3.084,0.34766 6e-4,9e-5 0,-9e-5 0,0 1.032,0.14373 2.0669,0.31494 3.1055,0.51367 0,2.5e-4 0,-2.4e-4 0,0 1.0381,0.19868 2.0807,0.42665 3.125,0.67969 6e-4,1.5e-4 0,-1.5e-4 0,0 3.397,0.8228 6.7614,1.69962 10.0937,2.63086 3.3334,0.93157 6.6331,1.91725 9.9004,2.95898 3.2668,1.04152 6.4998,2.13774 9.6992,3.29102 3.1999,1.1535 6.365,2.36392 9.4961,3.63086 6.2613,2.53334 12.383,5.29424 18.3613,8.29101 3.0366,1.52214 6.0347,3.10771 8.9961,4.75196 2.8236,1.56774 5.6131,3.19082 8.3672,4.87109 0.089,0.054 0.1772,0.10797 0.2657,0.16211 2.7535,1.68494 5.4715,3.42742 8.1543,5.22656 0.083,0.0554 0.1654,0.11049 0.248,0.16602 2.7258,1.83315 5.4151,3.72292 8.0664,5.67578 2.6816,1.97521 5.3256,4.014 7.9297,6.11328 0.01,0.006 0.016,0.0114 0.023,0.0176 0.01,0.005 0.012,0.0107 0.018,0.0156 2.6012,2.09798 5.1631,4.25703 7.6856,6.48047 0,0.004 0.01,0.008 0.014,0.0117 0,0.003 0.01,0.005 0.01,0.008 2.499,2.20332 4.9566,4.47077 7.3769,6.79883 0.03,0.0292 0.061,0.0567 0.092,0.0859 0.029,0.028 0.057,0.0579 0.086,0.0859 7.324,7.05964 14.286,14.69262 20.8652,22.92578 2.8232,3.53304 5.3709,7.18633 7.5801,10.97266 1.1046,1.89316 2.1252,3.82017 3.0527,5.78124 0.4638,0.98054 0.9038,1.97067 1.3203,2.96876 0.8331,1.99617 1.5708,4.02702 2.2032,6.0957 2.2132,7.24036 3.1476,14.93364 2.4687,23.14648 -1.9613,25.76202 -9.294,49.61693 -19.623,72.36133 -3.0988,6.82332 -6.4674,13.54645 -10.041,20.19141 -3.5737,6.64496 -7.3532,13.21303 -11.2735,19.72265 -10.8742,18.05221 -22.7596,35.38194 -37.7031,50.2793 -3.4483,3.4378 -7.0604,6.74687 -10.8594,9.9043 -1.0311,0.85662 -2.0697,1.63303 -3.1191,2.33007 -5e-4,2.9e-4 0,-2.8e-4 0,0 -1.0494,0.69694 -2.1069,1.3155 -3.1777,1.85743 0,6.4e-4 0,0.001 0,0.002 0,6.6e-4 0,0.001 0,0.002 -1.0699,0.54105 -2.1518,1.00563 -3.2461,1.39649 -1.087,0.38824 -2.1867,0.70274 -3.3008,0.94726 -0.01,0.002 -0.016,0.004 -0.023,0.006 -0.014,0.003 -0.027,0.005 -0.041,0.008 -1.0935,0.23721 -2.2015,0.40656 -3.3242,0.50976 -1.1367,0.1045 -2.2895,0.13601 -3.459,0.10742 -0.035,-8.5e-4 -0.068,0.005 -0.1035,0.004 -1.1886,-0.033 -2.3955,-0.1333 -3.6211,-0.29883 -1.2242,-0.16535 -2.4681,-0.39446 -3.7324,-0.6875 -6e-4,-1.4e-4 0,1.4e-4 0,0 -2.7001,-0.62638 -5.383,-1.29488 -8.0489,-2 0,-3.2e-4 0,3.2e-4 0,0 -2.6664,-0.70531 -5.3151,-1.45068 -7.9492,-2.23047 -6e-4,-1.7e-4 0,1.8e-4 0,0 -2.6341,-0.7798 -5.252,-1.59533 -7.8555,-2.44531 -6e-4,-1.9e-4 0,1.9e-4 0,0 -2.6035,-0.85 -5.1928,-1.73452 -7.7675,-2.65039 -6e-4,-2.1e-4 0,2e-4 0,0 -7.7255,-2.74809 -15.3243,-5.78306 -22.8242,-9.04688 -6e-4,-2.3e-4 0,2.4e-4 0,0 -2.4996,-1.08779 -4.9885,-2.20336 -7.4668,-3.33984 -5e-4,-2.5e-4 0,2.5e-4 0,0 -2.4783,-1.1365 -4.9456,-2.29567 -7.4043,-3.47656 -5e-4,-2.6e-4 0,2.5e-4 0,0 -2.4587,-1.18091 -4.9086,-2.38447 -7.3496,-3.60547 -5e-4,-2.6e-4 0,2.6e-4 0,0 -0.039,-0.0197 -0.078,-0.0409 -0.1172,-0.0606 -4.8026,-2.4038 -9.5717,-4.88191 -14.3164,-7.41601 -0.04,-0.0212 -0.08,-0.0414 -0.1192,-0.0625 -5e-4,-2.7e-4 0,2.7e-4 0,0 -4.8227,-2.57695 -9.6189,-5.21342 -14.3965,-7.89063 -5e-4,-2.8e-4 0,2.8e-4 0,0 -4.7776,-2.67722 -9.536,-5.39557 -14.2832,-8.13867 -5e-4,-2.8e-4 0,2.8e-4 0,0 -2.7267,-1.57606 -5.4322,-3.18249 -8.1192,-4.81641 -4e-4,-2.8e-4 0,2.9e-4 0,0 -2.687,-1.63393 -5.3551,-3.29768 -8.002,-4.99023 -4e-4,-2.9e-4 0,2.9e-4 0,0 -1.7352,-1.1096 -3.4482,-2.25166 -5.166,-3.38672 -0.9031,-0.59669 -1.8166,-1.17748 -2.7149,-1.78125 -2.6064,-1.75197 -5.1922,-3.53358 -7.7578,-5.3457 -4e-4,-3.1e-4 0,3e-4 0,0 -1.8573,-1.31182 -3.6917,-2.65827 -5.5274,-4.00196 -0.7006,-0.51285 -1.4119,-1.00981 -2.1094,-1.52734 -2.5241,-1.87285 -5.0271,-3.77641 -7.5097,-5.71094 -7e-4,-5.6e-4 0,-10e-4 0,-0.002 -2.483,-1.9348 -4.9436,-3.90117 -7.3847,-5.89844 -4e-4,-3.1e-4 0,3.2e-4 0,0 -2.4411,-1.99728 -4.8609,-4.02737 -7.2598,-6.08789 -3e-4,-3.2e-4 0,3.2e-4 0,0 -1.0705,-0.91946 -2.085,-1.84784 -3.0469,-2.78515 -14.4342,-14.06501 -16.7309,-30.17545 -9.4043,-49.41016 3.1887,-8.36975 6.7072,-16.53191 10.5215,-24.50586 1.2713,-2.65798 2.5759,-5.29502 3.9121,-7.91211 4.0087,-7.85128 8.3038,-15.52214 12.8535,-23.0332 4.5497,-7.51106 9.3535,-14.86169 14.3809,-22.07422 5.0272,-7.21253 10.2775,-14.28651 15.7187,-21.24219 1.8139,-2.31856 3.6488,-4.62291 5.5039,-6.91602 3.7101,-4.58621 7.5002,-9.12351 11.3614,-13.61718 2.7699,-3.2223 5.6268,-6.34353 8.5644,-9.37696 1.4683,-1.51621 2.9569,-3.01128 4.4649,-4.48437 1.5079,-1.47308 3.0359,-2.92672 4.582,-4.35938 6.1855,-5.73186 12.6693,-11.15076 19.4043,-16.34375 2.6762,-2.0634 5.4126,-3.84161 8.2012,-5.34179 2.7886,-1.50024 5.6304,-2.7213 8.5195,-3.67383 4.8128,-1.5868 9.7554,-2.42639 14.8027,-2.55078 z"
       transform="matrix(0.46206593,0,0,0.46206593,-290.1184,172.51267)" /><path
       id="path861"
       style="fill:#ffffff;fill-opacity:1;stroke-width:2.16419"
       d="m 2195.8789,230.22656 c -1.6407,-0.006 -3.2926,0.0299 -4.9531,0.10742 -50.8651,2.37629 -92.8931,47.3778 -90.5645,96.97461 2.5711,54.73029 45.8398,95.21097 99.5918,93.16797 50.4214,-1.91747 93.3047,-47.73503 90.6016,-96.79297 -2.9457,-53.39524 -43.8145,-93.27172 -94.6758,-93.45703 z m 0.053,30.29297 c 35.4777,0.0758 64.2128,28.92954 64.3946,64.6582 0.012,2.26605 -0.091,4.50239 -0.3008,6.70508 -0.2094,2.20269 -0.5255,4.37109 -0.9453,6.5 -0.4198,2.12892 -0.9427,4.21895 -1.5625,6.26367 -0.31,1.02235 -0.644,2.03192 -1.002,3.03125 -0.7161,1.99933 -1.527,3.95017 -2.4277,5.84961 -0.9002,1.89838 -1.8907,3.74501 -2.9649,5.53321 -0.5375,0.89482 -1.0947,1.77534 -1.6738,2.64062 -1.7364,2.59443 -3.657,5.05206 -5.7441,7.35742 -0.6957,0.76846 -1.4105,1.52018 -2.1426,2.25391 -2.9283,2.93492 -6.1414,5.58683 -9.5996,7.91406 -1.7295,1.16395 -3.5208,2.24586 -5.3672,3.24219 -3.6915,1.99177 -7.6066,3.63919 -11.7031,4.89844 -1.0243,0.31488 -2.0611,0.60526 -3.1074,0.87109 -2.0921,0.5314 -4.2279,0.96352 -6.4004,1.29102 -1.0866,0.16384 -2.1824,0.30122 -3.2871,0.41211 -2.2096,0.22167 -4.4541,0.33781 -6.7286,0.33984 -1.1155,10e-4 -2.2261,-0.0273 -3.33,-0.084 -1.104,-0.0567 -2.2003,-0.14296 -3.2911,-0.25586 -3.2722,-0.33871 -6.4829,-0.92636 -9.6093,-1.74414 -2.0843,-0.54516 -4.1305,-1.19252 -6.1348,-1.93555 -1.0022,-0.37153 -1.9947,-0.7668 -2.9746,-1.18555 -1.9598,-0.83745 -3.8727,-1.76788 -5.7344,-2.78515 -2.7925,-1.52598 -5.4682,-3.24781 -8.0058,-5.14454 -2.5377,-1.89666 -4.9379,-3.96851 -7.1797,-6.19531 -3.7361,-3.71104 -7.0336,-7.85262 -9.7969,-12.33008 -3e-4,-4.7e-4 3e-4,-10e-4 0,-0.002 -0.5524,-0.89512 -1.0848,-1.80337 -1.5937,-2.72461 -3e-4,-5e-4 2e-4,-10e-4 0,-0.002 -3.5646,-6.45224 -6.0457,-13.52618 -7.1836,-20.96485 -0.1626,-1.06266 -0.2974,-2.1322 -0.4043,-3.20898 -0.107,-1.07678 -0.1865,-2.16061 -0.2364,-3.25 -0.05,-1.08939 -0.069,-2.18466 -0.061,-3.28516 0.01,-1.10773 0.045,-2.20968 0.1113,-3.30468 0.066,-1.095 0.1614,-2.18282 0.2832,-3.26368 3.5327,-31.34471 30.2059,-56.44334 62.3594,-58.01757 1.1087,-0.0543 2.2227,-0.0805 3.3437,-0.0781 z"
       transform="matrix(0.46206593,0,0,0.46206593,-290.1184,172.51267)" /></g></g></g>
</svg>
