<?xml version="1.0" encoding="UTF-8" standalone="no"?>
<!-- Generator: Adobe Illustrator 19.0.0, SVG Export Plug-In . SVG Version: 6.00 Build 0)  -->

<svg
   version="1.1"
   id="Calque_1"
   x="0px"
   y="0px"
   viewBox="-50 55 798 454"
   style="enable-background:new -50 55 798 454;"
   xml:space="preserve"
   sodipodi:docname="pedidosya.svg"
   inkscape:version="1.1 (c68e22c387, 2021-05-23)"
   xmlns:inkscape="http://www.inkscape.org/namespaces/inkscape"
   xmlns:sodipodi="http://sodipodi.sourceforge.net/DTD/sodipodi-0.dtd"
   xmlns="http://www.w3.org/2000/svg"
   xmlns:svg="http://www.w3.org/2000/svg"><defs
   id="defs29"><clipPath
     clipPathUnits="userSpaceOnUse"
     id="clipPath838"><path
       d="M 0,201.498 H 317.546 V 0 H 0 Z"
       id="path836" /></clipPath></defs><sodipodi:namedview
   id="namedview27"
   pagecolor="#ffffff"
   bordercolor="#666666"
   borderopacity="1.0"
   inkscape:pageshadow="2"
   inkscape:pageopacity="0.0"
   inkscape:pagecheckerboard="0"
   showgrid="false"
   inkscape:zoom="0.42449875"
   inkscape:cx="-45.936531"
   inkscape:cy="93.050922"
   inkscape:window-width="1920"
   inkscape:window-height="991"
   inkscape:window-x="-9"
   inkscape:window-y="-9"
   inkscape:window-maximized="1"
   inkscape:current-layer="g24" />
<style
   type="text/css"
   id="style2">
	.st0{opacity:0.3;}
	.st1{fill:#FFFFFF;}
</style>
<g
   class="st0"
   id="g24">
	
	
	
	
	
	
<g
   id="g832"
   transform="matrix(1.3333333,0,0,-1.3333333,141.90266,421.64145)"
   style="fill:#ffffff"><g
     id="g834"
     clip-path="url(#clipPath838)"
     style="fill:#ffffff"><g
       id="g840"
       transform="translate(137.7618,52.8993)"
       style="fill:#ffffff"><path
         d="m 0,0 c -3.623,0 -6.3,-2.729 -6.365,-6.488 -0.052,-2.995 1.811,-4.784 4.985,-4.784 3.622,0 6.298,2.728 6.364,6.488 C 5.037,-1.789 3.173,0 0,0"
         style="fill:#ffffff;fill-opacity:1;fill-rule:nonzero;stroke:none"
         id="path842" /></g><g
       id="g844"
       transform="translate(111.2994,23.8837)"
       style="fill:#ffffff"><path
         d="m 0,0 c -0.198,-1.131 -0.56,-2.187 -1.074,-3.135 -0.513,-0.948 -1.151,-1.781 -1.895,-2.48 -0.736,-0.691 -1.584,-1.239 -2.521,-1.628 -1.751,-0.73 -3.921,-0.773 -5.514,-0.122 -0.742,0.303 -1.386,0.744 -1.913,1.31 -0.527,0.567 -0.927,1.264 -1.189,2.073 -0.267,0.823 -0.375,1.756 -0.322,2.775 0.065,1.23 0.338,2.411 0.811,3.51 0.471,1.095 1.102,2.066 1.874,2.884 0.764,0.809 1.671,1.463 2.696,1.944 1.011,0.473 2.105,0.714 3.25,0.714 1.004,0 1.918,-0.189 2.718,-0.561 C -2.284,6.915 -1.616,6.388 -1.094,5.718 -0.57,5.043 -0.203,4.22 -0.003,3.271 0.2,2.304 0.201,1.201 0,0 m 15.249,27.496 c -0.134,0.162 -0.333,0.257 -0.544,0.257 H 6.76 c -0.338,0 -0.629,-0.24 -0.693,-0.571 0,0 -3.068,-15.209 -3.26,-16.268 -1.999,3.517 -5.902,5.682 -10.756,5.682 -9.663,0 -16.676,-7.774 -16.676,-18.485 0,-8.814 5.298,-14.735 13.185,-14.735 3.788,0 7.112,1.514 9.595,4.266 -0.165,-0.758 -0.322,-1.555 -0.495,-2.475 -0.039,-0.205 0.02,-0.416 0.154,-0.575 0.133,-0.159 0.332,-0.252 0.54,-0.252 l 7.931,0.006 c 0.337,0 0.628,0.238 0.693,0.57 l 8.419,41.997 c 0.041,0.207 -0.015,0.42 -0.148,0.583"
         style="fill:#ffffff;fill-opacity:1;fill-rule:nonzero;stroke:none"
         id="path846" /></g><g
       id="g848"
       transform="translate(139.0113,37.0604)"
       style="fill:#ffffff"><path
         d="M 0,0 H -8.205 C -8.553,0 -8.853,-0.221 -8.92,-0.525 l -5.551,-27.532 c -0.042,-0.19 0.015,-0.388 0.153,-0.538 0.138,-0.149 0.344,-0.236 0.562,-0.236 h 8.206 c 0.348,0 0.649,0.22 0.715,0.525 l 5.55,27.532 C 0.756,-0.584 0.7,-0.387 0.562,-0.237 0.424,-0.087 0.217,0 0,0"
         style="fill:#ffffff;fill-opacity:1;fill-rule:nonzero;stroke:none"
         id="path850" /></g><g
       id="g852"
       transform="translate(32.0035,31.8866)"
       style="fill:#ffffff"><path
         d="m 0,0 c 0,0 -7.938,-0.042 -8.184,-0.042 0.053,0.249 2.111,10.458 2.179,10.889 0.4,-0.018 7.591,-0.069 7.591,-0.069 3.625,0 5.621,-1.691 5.621,-4.761 C 7.207,2.192 4.58,0 0,0 m -12.401,-21.159 c 0.836,3.719 2.378,11.971 2.421,12.184 0.363,0 9.65,-0.063 9.65,-0.063 11.079,0 17.96,5.92 17.96,15.45 0,8.352 -5.726,13.338 -15.318,13.338 H -14.16 c -0.345,0 -0.642,-0.244 -0.708,-0.583 l -8.351,-41.73 c -0.041,-0.211 0.034,-0.429 0.171,-0.595 0.136,-0.166 0.34,-0.263 0.556,-0.263 h 3.26 l 4.089,0.027 c 0,0 2.233,-0.027 2.742,2.235"
         style="fill:#ffffff;fill-opacity:1;fill-rule:nonzero;stroke:none"
         id="path854" /></g><g
       id="g856"
       transform="translate(197.6617,16.6278)"
       style="fill:#ffffff"><path
         d="m 0,0 c -4.078,0 -6.512,2.298 -6.512,6.147 0,4.83 3.378,8.336 8.033,8.336 4.077,0 6.511,-2.298 6.511,-6.147 C 8.032,3.507 4.654,0 0,0 m 2.15,23.852 c -10.787,0 -18.615,-7.693 -18.615,-18.291 0,-9.07 6.215,-14.929 15.836,-14.929 10.785,0 18.613,7.692 18.613,18.291 0,9.069 -6.214,14.929 -15.834,14.929"
         style="fill:#ffffff;fill-opacity:1;fill-rule:nonzero;stroke:none"
         id="path858" /></g><g
       id="g860"
       transform="translate(167.2574,23.8837)"
       style="fill:#ffffff"><path
         d="m 0,0 c -0.198,-1.131 -0.559,-2.187 -1.073,-3.135 -0.514,-0.948 -1.152,-1.781 -1.896,-2.48 -0.736,-0.691 -1.584,-1.239 -2.52,-1.628 -1.751,-0.73 -3.922,-0.773 -5.515,-0.122 -0.741,0.303 -1.385,0.744 -1.913,1.31 -0.526,0.567 -0.927,1.264 -1.188,2.073 -0.268,0.823 -0.375,1.756 -0.322,2.775 0.064,1.23 0.337,2.411 0.81,3.51 0.471,1.095 1.102,2.066 1.874,2.884 0.764,0.809 1.671,1.463 2.696,1.944 1.011,0.473 2.106,0.714 3.251,0.714 1.003,0 1.917,-0.189 2.718,-0.561 C -2.283,6.915 -1.615,6.388 -1.094,5.718 -0.569,5.043 -0.202,4.22 -0.003,3.271 0.201,2.304 0.201,1.201 0,0 m 15.114,27.496 c -0.134,0.162 -0.333,0.257 -0.544,0.257 H 6.625 c -0.338,0 -0.628,-0.24 -0.693,-0.571 0,0 -3.068,-15.209 -3.26,-16.268 -1.998,3.517 -5.901,5.682 -10.755,5.682 -9.664,0 -16.676,-7.774 -16.676,-18.485 0,-8.814 5.298,-14.735 13.184,-14.735 3.788,0 7.112,1.514 9.596,4.266 -0.166,-0.758 -0.322,-1.555 -0.496,-2.475 -0.039,-0.205 0.021,-0.416 0.154,-0.575 0.133,-0.159 0.332,-0.252 0.54,-0.252 l 7.93,0.006 c 0.338,0 0.629,0.238 0.694,0.57 l 8.42,41.997 c 0.04,0.207 -0.015,0.42 -0.149,0.583"
         style="fill:#ffffff;fill-opacity:1;fill-rule:nonzero;stroke:none"
         id="path862" /></g><g
       id="g864"
       transform="translate(241.8492,38.0702)"
       style="fill:#ffffff"><path
         d="m 0,0 c -4.141,1.89 -8.39,2.708 -12.287,2.366 -6.823,-0.598 -10.737,-4.669 -10.215,-10.624 0.315,-3.591 2.369,-6.346 6.284,-8.422 l 4.319,-2.26 c 1.765,-0.947 1.93,-1.384 1.979,-1.946 0.112,-1.285 -1.357,-1.607 -2.243,-1.685 -2.701,-0.237 -5.99,0.787 -9.51,2.959 -0.161,0.1 -0.364,0.128 -0.541,0.083 -0.185,-0.048 -0.343,-0.168 -0.437,-0.333 l -3.461,-6.106 c -0.18,-0.317 -0.085,-0.719 0.214,-0.925 4.295,-2.932 9.247,-4.247 14.318,-3.802 7.599,0.666 11.639,4.683 11.083,11.022 -0.336,3.825 -2.176,6.246 -6.352,8.357 l -3.891,1.967 c -2.284,1.249 -2.404,1.567 -2.456,2.164 -0.03,0.334 -0.118,1.35 2.063,1.541 2.167,0.191 5.008,-0.464 7.794,-1.797 0.169,-0.082 0.368,-0.091 0.544,-0.026 0.178,0.066 0.321,0.2 0.399,0.373 l 2.747,6.172 C 0.506,-0.57 0.351,-0.159 0,0"
         style="fill:#ffffff;fill-opacity:1;fill-rule:nonzero;stroke:none"
         id="path866" /></g><g
       id="g868"
       transform="translate(284.7672,51.4628)"
       style="fill:#ffffff"><path
         d="m 0,0 c -0.13,0.259 -0.395,0.422 -0.683,0.422 h -11.226 c -0.255,0 -0.494,-0.127 -0.636,-0.339 0,0 -11.145,-15.807 -11.924,-17.319 -0.211,1.432 -5.684,17.08 -5.684,17.08 -0.096,0.326 -0.395,0.551 -0.736,0.551 h -9.823 c -0.248,0 -0.479,-0.121 -0.625,-0.323 -0.142,-0.202 -0.179,-0.462 -0.097,-0.695 l 10.414,-26.381 -3.124,-15.33 c -0.043,-0.225 0.017,-0.457 0.163,-0.633 0.144,-0.176 0.361,-0.278 0.589,-0.278 h 7.947 c 1.042,0 1.938,0.738 2.138,1.762 l 2.779,14.22 20.46,26.463 C 0.104,-0.568 0.13,-0.259 0,0"
         style="fill:#ffffff;fill-opacity:1;fill-rule:nonzero;stroke:none"
         id="path870" /></g><g
       id="g872"
       transform="translate(296.6343,24.12)"
       style="fill:#ffffff"><path
         d="m 0,0 c -0.189,-1.079 -0.534,-2.087 -1.024,-2.992 -0.491,-0.904 -1.099,-1.699 -1.81,-2.366 -0.702,-0.66 -1.511,-1.182 -2.405,-1.554 -1.671,-0.696 -3.742,-0.738 -5.263,-0.117 -0.708,0.289 -1.322,0.71 -1.826,1.251 -0.502,0.54 -0.885,1.206 -1.135,1.977 -0.254,0.786 -0.357,1.677 -0.307,2.649 0.062,1.174 0.323,2.301 0.774,3.349 0.45,1.047 1.052,1.972 1.789,2.753 0.728,0.773 1.595,1.398 2.572,1.856 0.966,0.452 2.01,0.681 3.103,0.681 0.957,0 1.83,-0.179 2.594,-0.535 C -2.18,6.6 -1.542,6.096 -1.044,5.457 -0.544,4.813 -0.193,4.027 -0.003,3.121 0.191,2.198 0.191,1.146 0,0 m 11.981,15.38 c -0.129,0.159 -0.324,0.251 -0.53,0.251 H 3.712 c -0.329,0 -0.612,-0.234 -0.676,-0.557 0,0 -0.293,-1.478 -0.479,-2.51 L 2.549,12.528 c -1.75,2.12 -4.485,3.421 -7.19,3.589 -2.475,0.154 -4.875,-0.244 -7.191,-1.126 C -19.45,12.09 -24.524,4.6 -24.441,-3.611 c 0.072,-7.146 4.741,-11.937 11.856,-12.273 3.823,-0.179 7.151,0.963 10.176,3.537 -0.158,-0.762 -0.357,-1.764 -0.487,-2.458 -0.039,-0.2 0.019,-0.405 0.15,-0.56 0.13,-0.156 0.323,-0.245 0.525,-0.245 l 7.727,0.005 c 0.328,0 0.611,0.233 0.675,0.556 l 5.945,29.862 c 0.039,0.201 -0.015,0.409 -0.145,0.567"
         style="fill:#ffffff;fill-opacity:1;fill-rule:nonzero;stroke:none"
         id="path874" /></g><g
       id="g876"
       transform="translate(60.3506,28.203)"
       style="fill:#ffffff"><path
         d="m 0,0 c 1.468,3.519 4.118,5.338 8.064,5.338 4.017,0 6.034,-1.829 6.158,-5.37 C 13.587,-0.032 0.683,0 0,0 m 8.255,12.309 c -10.598,0 -18.291,-7.72 -18.291,-18.356 0,-9.169 6.167,-14.865 16.093,-14.865 4.498,0 8.218,1.154 12.137,3.769 0.351,0.234 0.405,0.742 0.112,1.044 l -4.88,5.043 c -0.209,0.216 -0.539,0.258 -0.804,0.117 -2.134,-1.136 -4.148,-1.644 -6.371,-1.644 -4.547,0 -7.189,2.08 -7.247,5.695 l 22.248,0.072 c 0.331,0 0.617,0.228 0.688,0.551 0.502,2.261 0.793,3.911 0.793,5.649 0,7.971 -5.547,12.925 -14.478,12.925"
         style="fill:#ffffff;fill-opacity:1;fill-rule:nonzero;stroke:none"
         id="path878" /></g><g
       id="g880"
       transform="translate(183.1636,194.1815)"
       style="fill:#ffffff"><path
         d="m 0,0 h -1.27 l -5.747,0.057 h -66.048 c -1.044,0 -1.891,-0.847 -1.891,-1.891 v -10.474 c 0,-11.486 8.106,-17.812 22.825,-17.812 L 0,-30.218 c 5.511,0 9.978,-4.467 9.978,-9.977 0,-5.511 -4.467,-9.978 -9.978,-9.978 h -58.461 c -0.852,0 -1.596,-0.578 -1.805,-1.404 l -13.83,-54.628 c -0.141,-0.556 -0.018,-1.147 0.335,-1.6 0.353,-0.453 0.895,-0.717 1.469,-0.717 h 18.536 c 6.944,0 10.28,5.763 11.067,8.788 l 5.457,19.857 H 0 c 22.022,0 39.939,17.916 39.939,39.938 C 39.939,-17.917 22.022,0 0,0"
         style="fill:#ffffff;fill-opacity:1;fill-rule:nonzero;stroke:none"
         id="path882" /></g></g></g></g>
</svg>
