<?xml version="1.0" encoding="UTF-8" standalone="no"?>
<!-- Generator: Adobe Illustrator 19.0.0, SVG Export Plug-In . SVG Version: 6.00 Build 0)  -->

<svg
   version="1.1"
   id="Calque_1"
   x="0px"
   y="0px"
   viewBox="-50 55 798 454"
   style="enable-background:new -50 55 798 454;"
   xml:space="preserve"
   sodipodi:docname="rappi.svg"
   inkscape:version="1.1 (c68e22c387, 2021-05-23)"
   xmlns:inkscape="http://www.inkscape.org/namespaces/inkscape"
   xmlns:sodipodi="http://sodipodi.sourceforge.net/DTD/sodipodi-0.dtd"
   xmlns="http://www.w3.org/2000/svg"
   xmlns:svg="http://www.w3.org/2000/svg"><defs
   id="defs29" /><sodipodi:namedview
   id="namedview27"
   pagecolor="#ffffff"
   bordercolor="#666666"
   borderopacity="1.0"
   inkscape:pageshadow="2"
   inkscape:pageopacity="0.0"
   inkscape:pagecheckerboard="0"
   showgrid="false"
   inkscape:zoom="0.42449875"
   inkscape:cx="-45.936531"
   inkscape:cy="93.050922"
   inkscape:window-width="1920"
   inkscape:window-height="991"
   inkscape:window-x="-9"
   inkscape:window-y="-9"
   inkscape:window-maximized="1"
   inkscape:current-layer="g24" />
<style
   type="text/css"
   id="style2">
	.st0{opacity:0.3;}
	.st1{fill:#FFFFFF;}
</style>
<g
   class="st0"
   id="g24">
	
	
	
	
	
	
<path
   fill="#ff441f"
   fill-rule="evenodd"
   d="m 490.24062,267.34549 c -0.66468,3.60869 -1.71456,7.77556 -3.12348,12.36777 -1.41553,4.59221 -3.22987,9.43692 -5.36976,14.34812 -2.32595,4.95111 -4.73846,9.58322 -7.1575,13.75672 -2.3925,4.13364 -4.78494,7.68913 -7.07771,10.56673 -2.23952,2.80448 -4.31974,4.87798 -6.16724,6.16725 -1.39547,0.97027 -2.17322,1.07653 -2.43897,1.07653 -0.1252,0 -0.22604,-0.0195 -0.33224,-0.0677 -0.23384,-0.10571 -1.01027,-0.62468 -1.34905,-3.0903 -0.31908,-2.25959 -0.14566,-5.23019 0.49842,-8.82553 0.66468,-3.70168 1.70813,-7.90845 3.12352,-12.47407 1.39547,-4.56561 3.20984,-9.41036 5.38302,-14.38802 2.15334,-4.9378 4.50584,-9.54331 7.00463,-13.69688 2.48539,-4.14695 4.90453,-7.66254 7.19734,-10.45377 2.22642,-2.72474 4.30645,-4.76496 6.1805,-6.0742 1.4023,-0.97028 2.17317,-1.07653 2.43897,-1.07653 0.13446,0 0.23384,0.0195 0.32542,0.0677 0.23384,0.10035 1.01027,0.62468 1.35572,3.0903 0.31227,2.25959 0.14566,5.18367 -0.49179,8.70588 m -93.29295,0 c -0.66468,3.60869 -1.71456,7.77556 -3.12352,12.36777 -1.42217,4.61877 -3.23645,9.45689 -5.36977,14.34812 -2.33267,4.9644 -4.74503,9.59647 -7.15745,13.75672 -2.39897,4.14027 -4.78494,7.69575 -7.0777,10.56673 -2.23953,2.80448 -4.31312,4.87793 -6.17393,6.16725 -1.39546,0.97027 -2.1664,1.07653 -2.43238,1.07653 -0.12521,0 -0.22604,-0.0195 -0.33225,-0.0653 -0.23384,-0.10572 -1.01007,-0.62469 -1.34904,-3.0903 -0.31909,-2.25282 -0.15297,-5.2169 0.49841,-8.82554 0.65787,-3.69505 1.70809,-7.88852 3.12348,-12.47406 1.39566,-4.57229 3.20989,-9.41037 5.38307,-14.38802 2.15987,-4.9511 4.51909,-9.55657 6.998,-13.69689 2.49869,-4.15357 4.91778,-7.66921 7.20392,-10.45377 2.233,-2.72473 4.31975,-4.77163 6.18055,-6.0742 1.39547,-0.97028 2.17317,-1.07653 2.43892,-1.07653 0.13445,0 0.23383,0.0195 0.32542,0.0653 0.23383,0.10035 1.01675,0.62468 1.35591,3.0903 0.31227,2.25959 0.14566,5.18367 -0.49179,8.70588 m -101.08156,-0.93033 c -0.41215,3.66846 -1.20942,7.85526 -2.37266,12.4541 -1.16972,4.58558 -2.76464,9.41037 -4.75166,14.35479 -1.98056,4.91788 -4.08718,9.54336 -6.27361,13.74342 -2.14004,4.10709 -4.29981,7.60938 -6.43309,10.41391 -2.07344,2.72473 -4.02067,4.75833 -5.7951,6.04098 -1.30909,0.95044 -2.04027,1.0567 -2.28619,1.0567 -0.11302,0 -0.21338,-0.0195 -0.31909,-0.0677 -0.23871,-0.10571 -1.06322,-0.6448 -1.48871,-3.15012 -0.3985,-2.29281 -0.43211,-5.25012 -0.11302,-8.79893 0.33224,-3.60196 1.08334,-7.74229 2.23952,-12.30127 1.15642,-4.56562 2.75796,-9.39708 4.7517,-14.3548 2.00691,-4.98433 4.12035,-9.60309 6.28023,-13.75004 2.12674,-4.10042 4.29314,-7.6426 6.43972,-10.53352 2.06019,-2.79122 4.01405,-4.85137 5.7818,-6.13401 1.30914,-0.95045 2.04032,-1.0567 2.29272,-1.0567 0.11302,0 0.21338,0.0195 0.30593,0.0677 0.25235,0.10571 1.10971,0.66458 1.63491,3.20322 0.46524,2.25959 0.49842,5.22357 0.10133,8.8189 m 204.40227,-30.48402 c 4.88465,0 9.08475,1.49524 12.48737,4.45264 3.28302,2.85101 5.62898,6.92483 6.96477,12.10188 1.29585,5.01755 1.56189,11.08513 0.79744,18.04318 -0.7645,6.87173 -2.77126,14.71369 -5.98121,23.30665 -3.0238,8.1211 -6.49286,15.26525 -10.29422,21.22648 -1.84088,2.89757 -3.7349,5.60901 -5.65553,8.11448 -0.24602,0.31909 0.1213,0.7377 0.47156,0.54503 1.11653,-0.60481 2.22643,-1.26267 3.32287,-1.98051 2.4987,-1.61483 4.89791,-3.35613 7.17738,-5.19701 6.35997,-5.15045 10.97878,-12.11518 13.22502,-19.94384 1.34267,-4.71186 2.83108,-9.38381 4.45264,-13.98928 2.65833,-7.58283 5.49605,-14.66053 8.4401,-21.04043 2.92412,-6.35997 5.35652,-11.11835 7.23057,-14.15545 2.1267,-3.45576 5.10392,-5.60901 8.8721,-6.4065 3.52221,-0.74423 6.89161,-0.69122 9.98854,0.14567 3.17004,0.86402 5.76183,2.43239 7.69575,4.67859 2.10663,2.45226 2.56524,5.24348 1.31592,8.07457 -0.37219,0.97685 -1.34904,3.20989 -2.90416,6.64573 -1.56193,3.45582 -3.31624,7.48975 -5.35651,12.35443 -1.96043,4.67201 -3.9741,9.72935 -5.98116,15.01942 -1.96042,5.19698 -3.49566,10.04836 -4.55898,14.42125 -1.03658,4.25325 -1.44205,7.78881 -1.20948,10.50692 0.22605,2.59846 1.2163,2.59846 1.75451,2.59846 0.75749,0 2.1001,-0.35904 4.18685,-2.06015 2.0069,-1.6615 4.12698,-3.66179 6.31344,-5.97448 2.18647,-2.31942 4.28647,-4.81821 6.22703,-7.42334 1.77438,-2.37261 3.29631,-4.47256 4.53239,-6.247 1.07657,-1.54848 2.79122,-2.43239 4.69855,-2.43239 2.01373,0 3.96753,1.01027 4.98433,2.57192 0.9902,1.52841 0.9637,3.34941 -0.0867,4.98427 -1.31591,2.05367 -3.61526,5.49604 -7.03117,10.54014 -3.38269,4.98433 -7.42997,10.12148 -12.0288,15.2786 -4.67859,5.2302 -9.78919,9.87556 -15.20544,13.80319 -5.69543,4.14032 -11.45063,6.23369 -17.09287,6.23369 -5.10393,0 -8.9119,-1.76775 -11.32432,-5.26341 -2.19261,-3.18988 -3.30918,-7.46977 -3.30918,-12.71989 v -0.83743 c 0.0146,-0.62468 -0.71788,-0.97685 -1.20285,-0.58474 -1.07014,0.85726 -2.17321,1.70798 -3.29631,2.54532 -6.63346,4.93779 -14.28938,9.12459 -22.76932,12.45413 -7.56954,2.97728 -15.90991,4.48587 -24.78859,4.48587 l -1.80775,-0.0195 -1.81414,-0.0604 c -6.04765,-0.0146 -10.53351,-1.90748 -13.34466,-5.64891 -0.49823,-0.65782 -0.95708,-1.33575 -1.3623,-2.03351 -0.32542,-0.55838 -1.16977,-0.46523 -1.35572,0.15833 -0.9105,3.0371 -1.77423,5.9679 -2.57191,8.77238 -1.72781,6.02768 -3.20322,11.24463 -4.49916,15.94981 -1.30267,4.71843 -2.4324,9.01826 -3.36277,12.79969 -0.8972,3.64185 -1.52193,6.59258 -1.84083,8.779 l -0.0195,0.0808 c -0.81731,4.14027 -3.61532,5.59571 -5.82834,6.09417 -0.98357,0.21874 -2.0069,0.33224 -3.04372,0.33224 -1.87406,0 -3.85456,-0.36537 -5.88148,-1.07657 -3.08362,-1.09002 -5.85488,-2.9706 -8.24733,-5.59571 -2.47891,-2.72474 -3.7349,-6.13402 -3.7349,-10.13473 0,-0.81088 0.20558,-2.58521 1.79445,-9.11793 1.18945,-4.8182 2.79118,-10.81265 4.77826,-17.8239 1.34266,-4.75172 2.87098,-9.92213 4.56567,-15.4514 0.19827,-0.66458 -0.55829,-1.2162 -1.12978,-0.82408 -5.90808,4.02067 -12.53394,7.49642 -19.76446,10.33412 -7.57617,2.97728 -15.90996,4.48592 -24.78864,4.48592 -1.19642,0 -2.41909,-0.0293 -3.62857,-0.0804 -6.04092,-0.0146 -10.52679,-1.90743 -13.34457,-5.64887 -0.49841,-0.65781 -0.95045,-1.32921 -1.35571,-2.03355 -0.33225,-0.55833 -1.16973,-0.45842 -1.35572,0.15833 -0.91708,3.04372 -1.78121,5.98115 -2.57854,8.77238 -1.73463,6.04765 -3.20989,11.27117 -4.49254,15.94976 -1.30266,4.71848 -2.43891,9.0183 -3.36939,12.79968 -0.8972,3.64854 -1.51516,6.59926 -1.84083,8.77906 l -0.0146,0.0808 c -0.81731,4.14023 -3.62193,5.59566 -5.83496,6.09413 -0.98362,0.21874 -2.00037,0.33224 -3.03709,0.33224 -1.87406,0 -3.85457,-0.36537 -5.88817,-1.07657 -3.08361,-1.08964 -5.84825,-2.97055 -8.24069,-5.59562 -2.47892,-2.72478 -3.73491,-6.13402 -3.73491,-10.13477 0,-0.81731 0.19827,-2.59183 1.79445,-9.11793 1.19642,-4.86473 2.79786,-10.85918 4.77164,-17.82391 1.16977,-4.14027 2.46556,-8.55306 3.921,-13.31807 0.21338,-0.71787 -0.66468,-1.26267 -1.22277,-0.75101 -2.47886,2.25959 -5.03085,4.36622 -7.64929,6.29353 -5.61563,4.14027 -11.331,6.24032 -16.97986,6.24032 -5.10392,0 -8.91863,-1.76781 -11.32436,-5.26342 -0.96989,-1.4097 -1.72747,-3.03793 -2.27904,-4.86551 -0.4852,-1.62814 -2.5719,-2.12675 -3.75483,-0.8972 -1.66156,1.7278 -3.48904,3.30289 -5.44952,4.69183 -2.55198,1.80775 -5.40298,3.32292 -8.48661,4.50584 -3.17667,1.20942 -6.61251,1.82758 -10.21452,1.82758 -4.87131,0 -9.14453,-1.48194 -12.69334,-4.41279 -3.45582,-2.83103 -6.01443,-6.84508 -7.61607,-11.94238 -1.55501,-4.93781 -2.12668,-11.00533 -1.7012,-18.04318 0.42529,-6.95143 2.0069,-14.75354 4.70518,-23.20031 5.74859,-17.51816 13.24495,-30.52387 22.28981,-38.6782 9.21102,-8.30719 18.55493,-12.52059 27.77259,-12.52059 3.90103,0 7.20397,0.78418 9.80243,2.3259 2.55866,1.52846 4.53243,3.54881 5.86818,6.00776 0.89043,1.65478 1.54186,3.4292 1.94065,5.31661 0.0716,0.33225 0.52492,0.39849 0.69118,0.10035 0.46524,-0.83747 0.91064,-1.58824 1.32916,-2.27293 2.12675,-3.44252 5.06413,-5.59572 8.73921,-6.39988 3.43584,-0.74423 6.79857,-0.69775 9.98191,0.14079 3.26305,0.86408 5.90141,2.43892 7.84196,4.68526 2.10662,2.45222 2.56523,5.24345 1.30909,8.07458 -0.36536,0.9635 -1.30909,3.1433 -2.89752,6.64564 -1.54849,3.42917 -3.3561,7.58274 -5.35647,12.35442 -1.98056,4.72511 -3.99408,9.78251 -5.98116,15.01938 -1.96724,5.19698 -3.50233,10.05498 -4.55899,14.42125 -1.03662,4.25992 -1.44208,7.79548 -1.20932,10.50691 0.22604,2.59851 1.21629,2.59851 1.74808,2.59851 0.76445,0 2.10662,-0.35903 4.1868,-2.06015 1.14964,-0.95044 2.34596,-2.02025 3.56873,-3.19664 4.73836,-4.56551 7.91503,-9.54985 10.035,-15.75032 2.81778,-8.22744 5.78181,-16.34854 8.82554,-24.1772 3.24979,-8.32712 6.41979,-15.80357 9.42367,-22.2234 1.56835,-3.32287 4.0539,-5.56244 7.36351,-6.63907 3.10355,-1.01027 6.28685,-1.22277 9.417,-0.63121 3.12352,0.59804 5.86151,1.84088 8.1344,3.70169 1.01013,0.82407 1.81418,1.71451 2.41232,2.65166 0.15833,0.25235 0.34539,0.27914 0.56486,0.0731 2.68488,-2.47887 5.64886,-4.75171 8.84545,-6.77863 4.67864,-2.98396 9.97529,-4.49254 15.74379,-4.49254 4.87798,0 9.08471,1.49529 12.4807,4.45263 3.28964,2.85769 5.63561,6.92489 6.9714,12.10194 1.29584,5.01087 1.56188,11.08507 0.79743,18.04317 -0.7645,6.86506 -2.77793,14.71369 -5.98115,23.30661 -3.03048,8.12777 -6.4996,15.27192 -10.30095,21.22648 -1.84083,2.89757 -3.73486,5.60905 -5.65549,8.11447 -0.24601,0.31909 0.12521,0.73771 0.47839,0.54509 1.1099,-0.60486 2.21965,-1.26268 3.32287,-1.98056 1.78764,-1.15641 3.52221,-2.37914 5.19697,-3.65515 6.3666,-4.83809 11.11836,-11.45727 13.65037,-18.99354 l 0.99683,-2.94405 c 2.99062,-8.83889 6.154,-17.54477 9.39711,-25.87851 3.25638,-8.34042 6.42642,-15.81691 9.4303,-22.22341 1.56193,-3.32287 4.0406,-5.55581 7.36346,-6.63906 3.1036,-1.01027 6.2869,-1.22277 9.41705,-0.63121 3.12347,0.59804 5.85488,1.84088 8.12772,3.69506 1.01027,0.83061 1.81419,1.72133 2.41232,2.65828 0.16027,0.25235 0.34539,0.27914 0.56491,0.0731 2.68488,-2.47886 5.64887,-4.75171 8.84546,-6.77863 4.68507,-2.98425 9.98176,-4.49279 15.74359,-4.49279 z M 194.59849,194.5414 c 7.00462,0 14.02255,0.81084 20.86763,2.39903 6.89165,1.6083 13.14532,4.05384 18.57487,7.27041 5.49604,3.25643 10.0085,7.34355 13.41112,12.14841 3.46906,4.89128 5.22352,10.62656 5.22352,17.04635 0,6.91158 -1.54172,13.39783 -4.58554,19.27263 -3.01717,5.81503 -7.17075,11.12502 -12.33449,15.78363 -5.11723,4.62544 -11.1848,8.70594 -18.03656,12.12186 -5.64886,2.81778 -11.64999,5.22357 -17.88369,7.15745 -0.39898,0.12569 -0.53826,0.33224 -0.51843,0.73093 0.133,3.05708 0.35221,6.08087 0.66463,8.99171 0.35222,3.34279 0.81731,6.59921 1.38904,9.68945 0.55809,3.03715 1.23602,5.99451 2.00037,8.79236 0.59805,2.1664 1.26268,4.27318 1.97373,6.2736 0.45209,1.27597 0.93038,2.52534 1.41569,3.69501 0.9768,2.35932 2.05362,4.61881 3.1966,6.71219 1.123,2.06014 2.33919,4.01405 3.61526,5.8084 1.24284,1.74793 2.57854,3.38932 3.96752,4.89123 1.35582,1.46211 2.79119,2.80453 4.26655,4.00075 1.43551,1.163 2.95073,2.21969 4.49922,3.12352 1.50853,0.89044 3.09024,1.66151 4.70518,2.29954 1.58843,0.62469 3.22977,1.12977 4.88455,1.49525 1.66156,0.36537 3.36944,0.59803 5.09731,0.7111 1.72137,0.10523 3.51558,0.0853 5.30332,-0.0731 1.82104,-0.15833 3.6817,-0.45209 5.52926,-0.88391 1.89412,-0.43844 3.82128,-1.01675 5.7419,-1.72785 1.96725,-0.73094 3.95423,-1.62161 5.91471,-2.62507 0.75105,-0.38534 1.50859,-0.79752 2.25959,-1.22272 2.44574,-1.39557 5.56912,-0.73093 7.21065,1.52837 1.64825,2.2596 1.28274,5.38307 -0.84396,7.21732 -1.04339,0.8972 -2.09332,1.77429 -3.13014,2.61176 -2.51872,2.0335 -5.04411,3.921 -7.50967,5.60239 -2.33925,1.59486 -4.71853,3.08362 -7.07108,4.40611 -1.17629,0.66469 -2.41231,1.31592 -3.66846,1.9406 -2.41231,1.20928 -4.85138,2.2729 -7.26379,3.16333 -2.39902,0.88381 -4.81153,1.62161 -7.16412,2.17975 -2.34597,0.55824 -4.71182,0.9635 -7.01788,1.19622 -1.64826,0.16563 -3.29632,0.25235 -4.90458,0.25235 -0.65133,0 -1.30262,-0.0146 -1.9539,-0.0439 -2.233,-0.094 -4.45264,-0.35222 -6.60589,-0.77093 -1.06323,-0.20607 -2.14004,-0.45891 -3.18997,-0.75105 -1.01675,-0.27233 -2.06015,-0.59799 -3.10355,-0.97676 -2.00042,-0.7171 -3.98745,-1.601 -5.88815,-2.63096 -1.86071,-1.01022 -3.69506,-2.17317 -5.43622,-3.46238 -1.40886,-1.04341 -2.79123,-2.19305 -4.10042,-3.4093 -1.57514,-1.46211 -3.11023,-3.09029 -4.56562,-4.81815 -1.43551,-1.70798 -2.81115,-3.55549 -4.08717,-5.48937 -1.2825,-1.9273 -2.49216,-3.98745 -3.60863,-6.1141 -1.10995,-2.12674 -2.1664,-4.38619 -3.12348,-6.71218 -0.95044,-2.30607 -1.83435,-4.75171 -2.63836,-7.28372 -0.79095,-2.48569 -1.51512,-5.11728 -2.15334,-7.82871 -0.63146,-2.70481 -1.18307,-5.50934 -1.64144,-8.34042 -0.41214,-2.50551 -0.75758,-5.10392 -1.0301,-7.74229 -0.0804,-0.79748 -1.22949,-0.90373 -1.46211,-0.12568 -0.99692,3.44251 -1.90065,6.77868 -2.69813,9.9686 -1.00346,4.00076 -1.92731,7.64261 -2.76468,10.91228 -0.81732,3.20328 -1.39552,5.78181 -1.72786,7.66259 -0.66459,3.33617 -2.87761,5.44284 -6.42642,6.12735 -3.0504,0.59809 -6.32675,0.3454 -9.70276,-0.73093 -3.33617,-1.06995 -6.36664,-2.92408 -9.0183,-5.52254 -2.77793,-2.72474 -4.1868,-6.14733 -4.1868,-10.18131 0,-3.28297 0.83743,-8.47332 2.55194,-15.85675 1.67461,-7.2106 4.08717,-15.75704 7.18404,-25.41328 3.07038,-9.57654 6.79861,-20.1366 11.07183,-31.36793 3.66846,-9.64961 7.78881,-19.36567 12.25475,-28.94884 1.46211,-3.13677 4.48586,-5.29664 7.9749,-5.69538 7.88848,-0.90373 14.73361,-0.67793 20.5353,0.66463 3.49566,0.81079 5.36981,4.55232 3.9077,7.77551 -3.74153,8.22745 -7.19067,16.43492 -10.2743,24.42308 -2.49221,6.46631 -4.8846,12.86618 -7.14419,19.09325 -0.21874,0.61811 0.41847,1.18955 1.0168,0.91703 3.0105,-1.36239 5.9812,-2.97065 8.88535,-4.80486 4.75833,-3.01055 9.09138,-6.60588 12.88611,-10.67976 3.77475,-4.07383 6.87168,-8.66604 9.20434,-13.65698 2.29954,-4.94444 3.46907,-10.3142 3.46907,-15.97636 0,-7.2771 -2.04684,-12.65349 -6.08087,-15.96969 -4.08708,-3.35614 -9.84233,-5.06407 -17.11276,-5.06407 -7.74228,0 -14.82004,1.8077 -21.03376,5.37639 -6.37994,3.65516 -11.8959,8.1477 -16.39507,13.35792 -4.53238,5.25017 -8.1078,10.85918 -10.61326,16.67416 -2.48539,5.76189 -3.7482,10.81267 -3.7482,15.01938 0,3.01056 -1.61479,5.18368 -4.5457,6.12078 -2.57185,0.82408 -5.40961,0.70453 -8.32044,-0.36537 -2.79786,-1.02357 -5.38969,-3.0504 -7.70906,-6.01443 -2.33272,-2.97728 -3.51559,-7.01125 -3.51559,-11.9889 0,-4.34629 1.67462,-9.46352 5.11723,-15.64406 3.34946,-6.02773 8.30714,-11.89591 14.72031,-17.4451 6.40649,-5.53589 14.48774,-10.3408 24.04425,-14.27505 9.60977,-3.96085 20.71482,-5.96786 33.0028,-5.96786 z m 381.24633,-4.59883 c 10.71957,0 19.40558,8.57299 19.40558,19.13973 0,10.56674 -8.68601,19.13973 -19.40558,19.13973 -10.71956,0 -19.40562,-8.57299 -19.40562,-19.13973 0,-10.56674 8.68606,-19.13973 19.40562,-19.13973 z"
   id="path2"
   style="fill:#ffffff;stroke-width:6.64574" /></g>
</svg>
