<?xml version="1.0" encoding="UTF-8" standalone="no"?>
<!-- Generator: Adobe Illustrator 19.0.0, SVG Export Plug-In . SVG Version: 6.00 Build 0)  -->

<svg
   version="1.1"
   id="Calque_1"
   x="0px"
   y="0px"
   viewBox="-50 55 798 454"
   style="enable-background:new -50 55 798 454;"
   xml:space="preserve"
   sodipodi:docname="ubereats.svg"
   inkscape:version="1.1 (c68e22c387, 2021-05-23)"
   xmlns:inkscape="http://www.inkscape.org/namespaces/inkscape"
   xmlns:sodipodi="http://sodipodi.sourceforge.net/DTD/sodipodi-0.dtd"
   xmlns="http://www.w3.org/2000/svg"
   xmlns:svg="http://www.w3.org/2000/svg"><defs
   id="defs29" /><sodipodi:namedview
   id="namedview27"
   pagecolor="#ffffff"
   bordercolor="#666666"
   borderopacity="1.0"
   inkscape:pageshadow="2"
   inkscape:pageopacity="0.0"
   inkscape:pagecheckerboard="0"
   showgrid="false"
   inkscape:zoom="0.42449875"
   inkscape:cx="-45.936531"
   inkscape:cy="93.050922"
   inkscape:window-width="1920"
   inkscape:window-height="991"
   inkscape:window-x="-9"
   inkscape:window-y="-9"
   inkscape:window-maximized="1"
   inkscape:current-layer="g24" />
<style
   type="text/css"
   id="style2">
	.st0{opacity:0.3;}
	.st1{fill:#FFFFFF;}
</style>
<g
   class="st0"
   id="g24">
	
	
	
	
	
	
<g
   data-reactid="20"
   id="g6"
   transform="matrix(1.8038228,0,0,1.8038228,-81.197051,136.13137)"
   style="fill:#ffffff"><path
     fill="#262626"
     d="m 228.06,81.56 c -5.47,0 -9.35,4.28 -9.35,10.85 v 24.1 h -8.35 V 74.09 h 8.25 v 5.18 a 11.19,11.19 0 0 1 9.94,-5.48 h 3 v 7.77 z M 204.59,95.3 c 0,-12.65 -9,-22.11 -21.18,-22.11 A 21.83,21.83 0 0 0 161.73,95.3 c 0,12.64 9.75,22.2 22.47,22.2 a 22.17,22.17 0 0 0 18.3,-9.06 L 196.44,104 a 14.78,14.78 0 0 1 -12.24,6.17 14.22,14.22 0 0 1 -14,-12.14 h 34.41 z m -34.21,-3.89 c 1.49,-6.47 6.66,-10.85 12.93,-10.85 6.27,0 11.43,4.38 12.83,10.85 z m -35.1,-18.22 a 21.12,21.12 0 0 0 -15,6.27 V 58.25 h -8.35 v 58.26 h 8.25 v -5.38 a 21.45,21.45 0 0 0 15.12,6.37 22.16,22.16 0 1 0 0,-44.31 z m -0.6,36.85 A 14.69,14.69 0 1 1 149.3,95.4 14.58,14.58 0 0 1 134.68,110 Z m -53.5,-0.4 c 8.06,0 14.32,-6.18 14.32,-15.44 V 58.25 h 8.65 v 58.26 H 95.6 V 111 a 21.24,21.24 0 0 1 -15.41,6.47 c -12.43,0 -22,-9.06 -22,-22.8 V 58.25 H 67 v 36 c 0,9.31 6,15.39 14.18,15.39 z"
     data-reactid="21"
     id="path2"
     style="fill:#ffffff" /><path
     fill="#5fb709"
     d="m 252.32,58.25 h 40.87 v 10 h -29.83 v 14.2 h 29 v 9.66 h -29 v 14.44 h 29.83 v 10 h -40.87 z m 153.74,59.35 c 12.53,0 19.59,-6 19.59,-14.24 0,-5.87 -4.18,-10.25 -12.93,-12.15 l -9.25,-1.89 c -5.37,-1 -7.06,-2 -7.06,-4 0,-2.59 2.59,-4.18 7.36,-4.18 5.17,0 9,1.39 10,6.17 h 10.84 c -0.59,-9 -7.06,-14.94 -20.18,-14.94 -11.34,0 -19.3,4.68 -19.3,13.75 0,6.27 4.38,10.35 13.83,12.34 l 10.34,2.39 c 4.08,0.8 5.17,1.9 5.17,3.59 0,2.69 -3.08,4.38 -8.06,4.38 -6.26,0 -9.84,-1.39 -11.23,-6.17 h -10.9 c 1.59,8.98 8.25,14.95 21.78,14.95 z m -24.93,-1.09 H 369.4 c -7.36,0 -11.44,-4.58 -11.44,-10.36 v -22.9 h -8.25 V 73.49 H 358 V 61.24 h 10.9 v 12.25 h 12.23 v 9.76 H 368.9 v 20.11 c 0,2.29 1.59,3.39 4.08,3.39 h 8.15 z m -47,-43 v 3.88 a 21.16,21.16 0 0 0 -13.73,-5 22.61,22.61 0 1 0 0,45.21 21.1,21.1 0 0 0 13.73,-5 v 3.89 H 345 v -43 z m -12.83,34.65 a 13.15,13.15 0 1 1 13,-13.14 13,13 0 0 1 -13.02,13.12 z"
     data-reactid="22"
     id="path4"
     style="fill:#ffffff" /></g></g>
</svg>
