<?xml version="1.0" encoding="UTF-8" standalone="no"?>
<!-- Generator: Adobe Illustrator 19.0.0, SVG Export Plug-In . SVG Version: 6.00 Build 0)  -->

<svg
   version="1.1"
   id="Capa_1"
   x="0px"
   y="0px"
   viewBox="6 -6 512 512"
   style="enable-background:new 6 -6 512 512;"
   xml:space="preserve"
   sodipodi:docname="unlimitedit-gradient.svg"
   inkscape:version="1.1 (c68e22c387, 2021-05-23)"
   xmlns:inkscape="http://www.inkscape.org/namespaces/inkscape"
   xmlns:sodipodi="http://sodipodi.sourceforge.net/DTD/sodipodi-0.dtd"
   xmlns="http://www.w3.org/2000/svg"
   xmlns:svg="http://www.w3.org/2000/svg"><defs
   id="defs35"><linearGradient
     id="id0"
     gradientUnits="userSpaceOnUse"
     x1="2653.2"
     y1="11940.87"
     x2="11256.34"
     y2="11940.87"
     gradientTransform="matrix(0.04169115,0,0,0.04169115,-48.528098,-261.81378)"><stop
       offset="0"
       style="stop-opacity:1; stop-color:#02FD9C"
       id="stop4-8" /><stop
       offset="0.780392"
       style="stop-opacity:1; stop-color:#18E7C9"
       id="stop6-7" /><stop
       offset="1"
       style="stop-opacity:1; stop-color:#2ED0F7"
       id="stop8" /></linearGradient></defs><sodipodi:namedview
   id="namedview33"
   pagecolor="#ffffff"
   bordercolor="#666666"
   borderopacity="1.0"
   inkscape:pageshadow="2"
   inkscape:pageopacity="0.0"
   inkscape:pagecheckerboard="0"
   showgrid="false"
   inkscape:zoom="0.78320313"
   inkscape:cx="74.054863"
   inkscape:cy="245.78554"
   inkscape:window-width="1920"
   inkscape:window-height="991"
   inkscape:window-x="-9"
   inkscape:window-y="-9"
   inkscape:window-maximized="1"
   inkscape:current-layer="Capa_1" />
<style
   type="text/css"
   id="style2">
	.st0{fill:none;stroke:url(#SVGID_1_);stroke-width:16;stroke-miterlimit:10;}
	.st1{fill:url(#SVGID_2_);}
	.st2{fill:url(#SVGID_3_);}
	.st3{fill:url(#SVGID_4_);}
</style>
<linearGradient
   id="SVGID_1_"
   gradientUnits="userSpaceOnUse"
   x1="49.6399"
   y1="250"
   x2="474.3601"
   y2="250">
	<stop
   offset="0"
   style="stop-color:#00FF99"
   id="stop4" />
	<stop
   offset="1"
   style="stop-color:#33CCFF"
   id="stop6" />
</linearGradient>

<linearGradient
   id="SVGID_2_"
   gradientUnits="userSpaceOnUse"
   x1="154"
   y1="250"
   x2="370"
   y2="250">
	<stop
   offset="0"
   style="stop-color:#00FF99"
   id="stop11" />
	<stop
   offset="1"
   style="stop-color:#33CCFF"
   id="stop13" />
</linearGradient>

<linearGradient
   id="SVGID_3_"
   gradientUnits="userSpaceOnUse"
   x1="364.5626"
   y1="104.0135"
   x2="445.0897"
   y2="104.0135">
	<stop
   offset="0"
   style="stop-color:#00FF99"
   id="stop18" />
	<stop
   offset="1"
   style="stop-color:#33CCFF"
   id="stop20" />
</linearGradient>

<linearGradient
   id="SVGID_4_"
   gradientUnits="userSpaceOnUse"
   x1="35.9629"
   y1="289.5217"
   x2="85.673"
   y2="289.5217">
	<stop
   offset="0"
   style="stop-color:#00FF99"
   id="stop25" />
	<stop
   offset="1"
   style="stop-color:#33CCFF"
   id="stop27" />
</linearGradient>

<g
   id="g993"
   transform="matrix(1.0667187,0,0,1.0667187,-44.720252,-7.9722336)"><circle
     class="fil0"
     cx="483.79956"
     cy="194.94199"
     r="29.18589"
     id="circle14"
     style="clip-rule:evenodd;fill:#02fd9c;fill-rule:evenodd;stroke-width:0.0416912;image-rendering:optimizeQuality;shape-rendering:geometricPrecision;text-rendering:geometricPrecision" /><circle
     class="fil0"
     cx="396.41113"
     cy="387.22949"
     r="16.779856"
     id="circle16"
     style="clip-rule:evenodd;fill:#02fd9c;fill-rule:evenodd;stroke-width:0.0416912;image-rendering:optimizeQuality;shape-rendering:geometricPrecision;text-rendering:geometricPrecision" /><circle
     class="fil0"
     cx="471.09375"
     cy="354.20798"
     r="12.45398"
     id="circle18"
     style="clip-rule:evenodd;fill:#02fd9c;fill-rule:evenodd;stroke-width:0.0416912;image-rendering:optimizeQuality;shape-rendering:geometricPrecision;text-rendering:geometricPrecision" /><circle
     class="fil0"
     cx="450.01056"
     cy="283.84335"
     r="8.3895102"
     id="circle20"
     style="clip-rule:evenodd;fill:#02fd9c;fill-rule:evenodd;stroke-width:0.0416912;image-rendering:optimizeQuality;shape-rendering:geometricPrecision;text-rendering:geometricPrecision" /><circle
     class="fil0"
     cx="288.45023"
     cy="453.52512"
     r="8.3895102"
     id="circle22"
     style="clip-rule:evenodd;fill:#02fd9c;fill-rule:evenodd;stroke-width:0.0416912;image-rendering:optimizeQuality;shape-rendering:geometricPrecision;text-rendering:geometricPrecision" /><polyline
     class="fil1 str0"
     points="12768.36,10955.7 11957.88,13088.1 12463.58,14775.85 10733.19,15671.48 8082.71,17158.07 "
     id="polyline24"
     style="clip-rule:evenodd;fill:none;fill-rule:evenodd;stroke:#02fd9c;stroke-width:20;stroke-miterlimit:22.9256;image-rendering:optimizeQuality;shape-rendering:geometricPrecision;text-rendering:geometricPrecision"
     transform="matrix(0.04169115,0,0,0.04169115,-48.528096,-261.81377)" /><path
     class="fil2"
     d="m 241.42511,56.67453 c 29.20173,0 56.77042,6.984101 81.13515,19.365954 -1.76103,6.392504 -3.13268,10.680025 -8.07224,20.596269 l 0.10468,0.06707 c -21.92662,-11.58431 -46.91129,-18.150251 -73.43562,-18.150251 -86.95899,0 -157.451221,70.494318 -157.451221,157.451218 0,32.59498 9.904153,62.87818 26.869951,88.00126 l -0.0258,-0.0337 c -3.59294,8.1652 -6.47297,15.9552 -8.81434,24.50105 -24.793314,-30.76098 -39.648701,-69.8727 -39.648701,-112.45854 0,-99.04651 80.292151,-179.340324 179.338241,-179.340324 z m 95.75374,27.689176 c 11.61974,7.333893 22.15175,15.850144 31.76573,25.572934 -2.43601,8.38201 -4.92539,15.5187 -8.44913,23.3558 l 0.01,0.0138 c -9.13037,-10.60082 -19.38389,-19.79664 -31.00947,-27.65542 z m 42.91561,37.940614 c 25.4091,30.94693 40.66722,70.54393 40.66722,113.71054 0,99.04608 -80.29215,179.34031 -179.33657,179.34031 -29.62156,0 -57.56172,-7.18379 -82.17909,-19.90335 1.59509,-7.61614 3.95231,-13.92526 7.07122,-20.8881 l -0.0471,-0.0296 c 22.27016,12.06792 47.77764,18.92195 74.88689,18.92195 86.95857,0 157.45081,-70.49265 157.45081,-157.45123 0,-32.99561 -10.14888,-63.6186 -27.49573,-88.91888 z M 144.62368,387.00061 c -11.47758,-7.37517 -22.06129,-16.02191 -31.54895,-25.74471 2.44811,-7.58069 5.48614,-15.10428 8.95068,-21.9483 l 0.19969,-0.12841 c 8.84812,10.19057 18.98532,19.23379 30.15479,26.8737 l -0.0967,-0.0592 z"
     id="path26"
     style="clip-rule:evenodd;fill:url(#id0);fill-rule:evenodd;stroke-width:0.0416912;image-rendering:optimizeQuality;shape-rendering:geometricPrecision;text-rendering:geometricPrecision" /><path
     class="fil3"
     d="M 108.28859,320.52324 C 23.06187,180.3334 168.99382,27.188046 311.36952,95.037896 146.64028,102.63068 87.928707,199.62681 108.28859,320.52324 Z"
     id="path28"
     style="clip-rule:evenodd;fill:#02fd9c;fill-opacity:0.4;fill-rule:evenodd;stroke-width:0.0416912;image-rendering:optimizeQuality;shape-rendering:geometricPrecision;text-rendering:geometricPrecision" /><path
     class="fil0"
     d="M 126.95372,374.07509 113.07015,361.2655 c -16.353362,19.36595 -23.245748,15.3611 -11.33792,-12.77584 20.55624,-60.44592 46.70076,-111.99787 81.48286,-173.71411 -37.57791,52.60881 -64.49038,103.18686 -92.923744,157.82603 -42.138494,87.49096 -22.296421,114.26835 36.662374,41.47351 z"
     id="path30"
     style="clip-rule:evenodd;fill:#02fd9c;fill-rule:evenodd;stroke-width:0.0416912;image-rendering:optimizeQuality;shape-rendering:geometricPrecision;text-rendering:geometricPrecision" /><path
     class="fil4"
     d="m 175.9108,403.01084 -16.73108,-7.58528 c -13.94027,18.22278 -25.66382,17.77876 -13.75599,-10.35817 20.55624,-60.44592 46.70076,-111.99744 81.48286,-173.71369 -37.57749,52.60839 -64.49038,103.18643 -92.92375,157.82602 -42.138492,87.49055 -13.47458,111.19739 41.92796,33.83112 z"
     id="path32"
     style="clip-rule:evenodd;fill:#24d9e4;fill-rule:evenodd;stroke-width:0.0416912;image-rendering:optimizeQuality;shape-rendering:geometricPrecision;text-rendering:geometricPrecision" /><path
     class="fil0"
     d="m 305.73079,68.548167 16.84198,7.520666 c 13.94152,-18.221115 25.6634,-17.780439 13.75557,10.358169 -20.55748,60.445918 -46.70076,111.997438 -81.48285,173.713688 37.5779,-52.60839 64.49037,-103.18644 92.92374,-157.82602 42.1385,-87.490552 13.3641,-111.1327714 -42.03844,-33.766503 z"
     id="path34"
     style="clip-rule:evenodd;fill:#02fd9c;fill-rule:evenodd;stroke-width:0.0416912;image-rendering:optimizeQuality;shape-rendering:geometricPrecision;text-rendering:geometricPrecision" /><path
     class="fil4"
     d="m 354.36227,97.936675 13.88357,12.809605 c 16.35335,-19.365949 23.24574,-15.361102 11.33791,12.77584 -20.55624,60.4455 -46.70076,111.99744 -81.48286,173.71369 37.5779,-52.60841 64.49038,-103.18644 92.92374,-157.82603 42.13851,-87.490543 22.29643,-114.267936 -36.66236,-41.473105 z"
     id="path36"
     style="clip-rule:evenodd;fill:#24d9e4;fill-rule:evenodd;stroke-width:0.0416912;image-rendering:optimizeQuality;shape-rendering:geometricPrecision;text-rendering:geometricPrecision" /></g></svg>
